<svg xmlns="http://www.w3.org/2000/svg" xmlns:xlink="http://www.w3.org/1999/xlink" id="Layer_1" x="0" y="0" version="1.1" viewBox="0 0 200 200" xml:space="preserve" style="enable-background:new 0 0 200 200"><style type="text/css">.st0{clip-path:url(#SVGID_2_)}.st1{clip-path:url(#SVGID_4_);enable-background:new}.st2{clip-path:url(#SVGID_6_)}.st3{clip-path:url(#SVGID_8_)}.st4{clip-path:url(#SVGID_10_);fill:#1c998b}</style><g><defs><rect id="SVGID_1_" width="189" height="189" x="3" y="5"/></defs><clipPath id="SVGID_2_"><use xlink:href="#SVGID_1_" style="overflow:visible"/></clipPath><g class="st0"><defs><rect id="SVGID_3_" width="10080" height="9660" x="-9279" y="-2949"/></defs><clipPath id="SVGID_4_"><use xlink:href="#SVGID_3_" style="overflow:visible"/></clipPath><g class="st1"><g><defs><rect id="SVGID_5_" width="189" height="189" x="3" y="5"/></defs><clipPath id="SVGID_6_"><use xlink:href="#SVGID_5_" style="overflow:visible"/></clipPath><g class="st2"><defs><path id="SVGID_7_" d="M97.5,5C45.3,5,3,47.3,3,99.5S45.3,194,97.5,194S192,151.7,192,99.5S149.7,5,97.5,5 M97.5,154 C67.4,154,43,129.6,43,99.5C43,69.4,67.4,45,97.5,45S152,69.4,152,99.5C152,129.6,127.6,154,97.5,154"/></defs><clipPath id="SVGID_8_"><use xlink:href="#SVGID_7_" style="overflow:visible"/></clipPath><g class="st3"><defs><rect id="SVGID_9_" width="189" height="189" x="3" y="5"/></defs><clipPath id="SVGID_10_"><use xlink:href="#SVGID_9_" style="overflow:visible"/></clipPath><rect width="259" height="259" x="-32" y="-30" class="st4"/></g></g></g></g></g></g></svg>