<svg xmlns="http://www.w3.org/2000/svg" xmlns:xlink="http://www.w3.org/1999/xlink" id="Layer_1" x="0" y="0" version="1.1" viewBox="0 0 5123 5355.3" xml:space="preserve" style="enable-background:new 0 0 5123 5355.3"><style type="text/css">.st0{fill:#282561}.st1{clip-path:url(#SVGID_2_)}.st2{clip-path:url(#SVGID_4_)}.st3{clip-path:url(#SVGID_6_)}.st4{clip-path:url(#SVGID_8_)}.st5{clip-path:url(#SVGID_10_)}.st6{clip-path:url(#SVGID_12_)}.st7{clip-path:url(#SVGID_14_)}.st8{clip-path:url(#SVGID_16_)}.st9{clip-path:url(#SVGID_18_)}.st10{clip-path:url(#SVGID_20_)}.st11{clip-path:url(#SVGID_22_)}.st12{clip-path:url(#SVGID_24_)}.st13{clip-path:url(#SVGID_26_)}.st14{clip-path:url(#SVGID_28_)}.st15{clip-path:url(#SVGID_30_)}.st16{clip-path:url(#SVGID_32_)}.st17{clip-path:url(#SVGID_34_)}.st18{clip-path:url(#SVGID_36_)}.st19{clip-path:url(#SVGID_38_)}.st20{clip-path:url(#SVGID_40_)}</style><title>PurpleZigZag</title><path d="M3656,3923l671.1-323.6c60.1-31.6,134.4-8.5,166,51.5c2.9,5.5,5.4,11.2,7.4,17c24.3,74.3-9.2,155.2-79,190.5	l-671.1,323.6c-60.3,31.5-134.7,8.2-166.2-52c-2.8-5.3-5.2-10.9-7.2-16.5C3552.7,4039.2,3586.2,3958.3,3656,3923" class="st0"/><g><defs><path id="SVGID_1_" d="M3656,3923l671.1-323.6c60.1-31.6,134.4-8.5,166,51.5c2.9,5.5,5.4,11.2,7.4,17 c24.3,74.3-9.2,155.2-79,190.5l-671.1,323.6c-60.3,31.5-134.7,8.2-166.2-52c-2.8-5.3-5.2-10.9-7.2-16.5 C3552.7,4039.2,3586.2,3958.3,3656,3923"/></defs><clipPath id="SVGID_2_"><use xlink:href="#SVGID_1_" style="overflow:visible"/></clipPath><g class="st1"><rect width="93619.4" height="89717.1" x="-82036.8" y="-21733" class="st0" transform="matrix(0.4563 -0.8898 0.8898 0.4563 -39729.6641 -18772.7793)"/><g><defs><rect id="SVGID_3_" width="93619.4" height="89717.1" x="-82036.8" y="-21733" transform="matrix(0.4563 -0.8898 0.8898 0.4563 -39729.6602 -18772.7754)"/></defs><clipPath id="SVGID_4_"><use xlink:href="#SVGID_3_" style="overflow:visible"/></clipPath><g class="st2"><rect width="1533.4" height="1361.9" x="3272.2" y="3208" class="st0" transform="matrix(0.4563 -0.8898 0.8898 0.4563 -1264.6017 5708.1875)"/></g></g></g></g><path d="M4633.5,4424.3l-130.2-732.6c-9.7-67.5-72.2-114.3-139.7-104.6c-5.4,0.8-10.8,1.9-16.1,3.4	c-74.3,23.1-120,97.6-107,174.3l130.4,732.6c9.7,67.5,72.2,114.3,139.7,104.6c5.4-0.8,10.8-1.9,16.1-3.4	C4601,4575.5,4646.6,4501,4633.5,4424.3" class="st0"/><g><defs><path id="SVGID_5_" d="M4633.5,4424.3l-130.2-732.6c-9.7-67.5-72.2-114.3-139.7-104.6c-5.4,0.8-10.8,1.9-16.1,3.4 c-74.3,23.1-120,97.6-107,174.3l130.4,732.6c9.7,67.5,72.2,114.3,139.7,104.6c5.4-0.8,10.8-1.9,16.1-3.4 C4601,4575.5,4646.6,4501,4633.5,4424.3"/></defs><clipPath id="SVGID_6_"><use xlink:href="#SVGID_5_" style="overflow:visible"/></clipPath><g class="st3"><rect width="93619.4" height="89717.1" x="-81908.4" y="-21170" class="st0" transform="matrix(0.4563 -0.8898 0.8898 0.4563 -40160.8672 -18352.377)"/><g><defs><rect id="SVGID_7_" width="93619.4" height="89717.1" x="-81908.4" y="-21170" transform="matrix(0.4563 -0.8898 0.8898 0.4563 -40160.8633 -18352.377)"/></defs><clipPath id="SVGID_8_"><use xlink:href="#SVGID_7_" style="overflow:visible"/></clipPath><g class="st4"><rect width="1533.4" height="1361.9" x="3670.9" y="3413.2" class="st0" transform="matrix(0.4563 -0.8898 0.8898 0.4563 -1230.4448 6174.5566)"/></g></g></g></g><path d="M3440.1,3353.4l129.7,735.8c9.5,67.3,71.8,114.2,139.2,104.7c5.6-0.8,11.1-2,16.6-3.5	c74.2-23.2,119.8-97.7,106.7-174.3l-129.4-734.8c-9.7-67.5-72.2-114.3-139.7-104.6c-5.4,0.8-10.8,1.9-16.1,3.4	c-74.2,23.1-119.9,97.5-107,174.1" class="st0"/><g><defs><path id="SVGID_9_" d="M3440.1,3353.4l129.7,735.8c9.5,67.3,71.8,114.2,139.2,104.7c5.6-0.8,11.1-2,16.6-3.5 c74.2-23.2,119.8-97.7,106.7-174.3l-129.4-734.8c-9.7-67.5-72.2-114.3-139.7-104.6c-5.4,0.8-10.8,1.9-16.1,3.4 c-74.2,23.1-119.9,97.5-107,174.1"/></defs><clipPath id="SVGID_10_"><use xlink:href="#SVGID_9_" style="overflow:visible"/></clipPath><g class="st5"><rect width="93619.4" height="89717.1" x="-82165.9" y="-22299.6" class="st0" transform="matrix(0.4563 -0.8898 0.8898 0.4563 -39295.6641 -19195.7129)"/><g><defs><rect id="SVGID_11_" width="93619.4" height="89717.1" x="-82165.9" y="-22299.6" transform="matrix(0.4563 -0.8898 0.8898 0.4563 -39295.6641 -19195.7129)"/></defs><clipPath id="SVGID_12_"><use xlink:href="#SVGID_11_" style="overflow:visible"/></clipPath><g class="st6"><rect width="1533.4" height="1361.9" x="2868" y="3002.6" class="st0" transform="matrix(0.4563 -0.8898 0.8898 0.4563 -1301.5477 5236.8862)"/></g></g></g></g><path d="M2638.9,2944.5l130.6,732.6c10,67.6,72.8,114.2,140.3,104.3c5.3-0.8,10.5-1.9,15.7-3.4	c74.2-23,119.9-97.5,106.7-174.1l-130.2-732.6c-9.5-67.5-72-114.4-139.5-104.9c-5.8,0.8-11.6,2.1-17.3,3.7	c-74,23.5-119.5,97.7-107,174.3" class="st0"/><g><defs><path id="SVGID_13_" d="M2638.9,2944.5l130.6,732.6c10,67.6,72.8,114.2,140.3,104.3c5.3-0.8,10.5-1.9,15.7-3.4 c74.2-23,119.9-97.5,106.7-174.1l-130.2-732.6c-9.5-67.5-72-114.4-139.5-104.9c-5.8,0.8-11.6,2.1-17.3,3.7 c-74,23.5-119.5,97.7-107,174.3"/></defs><clipPath id="SVGID_14_"><use xlink:href="#SVGID_13_" style="overflow:visible"/></clipPath><g class="st7"><rect width="93619.4" height="89717.1" x="-82423" y="-23427.1" class="st0" transform="matrix(0.4563 -0.8898 0.8898 0.4563 -38432.2109 -20037.4102)"/><g><defs><rect id="SVGID_15_" width="93619.4" height="89717.1" x="-82423.2" y="-23427.1" transform="matrix(0.4563 -0.8898 0.8898 0.4563 -38432.3398 -20037.625)"/></defs><clipPath id="SVGID_16_"><use xlink:href="#SVGID_15_" style="overflow:visible"/></clipPath><g class="st8"><rect width="1533.4" height="1361.9" x="2070.2" y="2590.9" class="st0" transform="matrix(0.4563 -0.8898 0.8898 0.4563 -1369.0369 4303.1738)"/></g></g></g></g><path d="M1838.4,2533.1l130.2,732.6c9.8,67.6,72.6,114.4,140.1,104.6c5.4-0.8,10.6-1.9,15.9-3.4	c74.2-23.2,119.8-97.7,106.7-174.3L2104,2458.4c-9.6-67.3-71.9-114.2-139.2-104.6c-5.5,0.8-10.9,1.9-16.3,3.4	c-75.2,23.2-122,98-109.9,175.8" class="st0"/><g><defs><path id="SVGID_17_" d="M1838.4,2533.1l130.2,732.6c9.8,67.6,72.6,114.4,140.1,104.6c5.4-0.8,10.6-1.9,15.9-3.4 c74.2-23.2,119.8-97.7,106.7-174.3L2104,2458.4c-9.6-67.3-71.9-114.2-139.2-104.6c-5.5,0.8-10.9,1.9-16.3,3.4 c-75.2,23.2-122,98-109.9,175.8"/></defs><clipPath id="SVGID_18_"><use xlink:href="#SVGID_17_" style="overflow:visible"/></clipPath><g class="st9"><rect width="93619.4" height="89717.1" x="-82679.5" y="-24554.4" class="st0" transform="matrix(0.4563 -0.8898 0.8898 0.4563 -37568.5234 -20878.5605)"/><g><defs><rect id="SVGID_19_" width="93619.4" height="89717.1" x="-82679.5" y="-24554.4" transform="matrix(0.4563 -0.8898 0.8898 0.4563 -37568.5195 -20878.5566)"/></defs><clipPath id="SVGID_20_"><use xlink:href="#SVGID_19_" style="overflow:visible"/></clipPath><g class="st10"><rect width="1533.4" height="1361.9" x="1269.9" y="2180.4" class="st0" transform="matrix(0.4563 -0.8898 0.8898 0.4563 -1438.8872 3367.8262)"/></g></g></g></g><path d="M1037.9,2121.8l130.2,732.6c9.9,67.6,72.6,114.3,140.2,104.5c5.3-0.8,10.4-1.9,15.6-3.3	c74.4-23,120.2-97.6,107-174.3l-130.2-732.6c-9.7-67.5-72.2-114.3-139.7-104.6c-5.4,0.8-10.8,1.9-16.1,3.4	C1071.3,1971.5,1026,2045.4,1037.9,2121.8" class="st0"/><g><defs><path id="SVGID_21_" d="M1037.9,2121.8l130.2,732.6c9.9,67.6,72.6,114.3,140.2,104.5c5.3-0.8,10.4-1.9,15.6-3.3 c74.4-23,120.2-97.6,107-174.3l-130.2-732.6c-9.7-67.5-72.2-114.3-139.7-104.6c-5.4,0.8-10.8,1.9-16.1,3.4 C1071.3,1971.5,1026,2045.4,1037.9,2121.8"/></defs><clipPath id="SVGID_22_"><use xlink:href="#SVGID_21_" style="overflow:visible"/></clipPath><g class="st11"><rect width="93619.4" height="89717.1" x="-82936.7" y="-25682.8" class="st0" transform="matrix(0.4563 -0.8898 0.8898 0.4563 -36704.3164 -21720.8809)"/><g><defs><rect id="SVGID_23_" width="93619.4" height="89717.1" x="-82936.7" y="-25682.8" transform="matrix(0.4563 -0.8898 0.8898 0.4563 -36704.3164 -21720.8789)"/></defs><clipPath id="SVGID_24_"><use xlink:href="#SVGID_23_" style="overflow:visible"/></clipPath><g class="st12"><rect width="1533.4" height="1361.9" x="468.6" y="1769.2" class="st0" transform="matrix(0.4563 -0.8898 0.8898 0.4563 -1508.5764 2431.2119)"/></g></g></g></g><path d="M3616.4,3445.8l-671.1,323.6c-60.5,31.4-135,7.9-166.4-52.6c-2.7-5.2-5.1-10.6-7-16.2	c-24.2-74.2,9.4-155,79-190.3l671.1-323.6c60.1-31.6,134.4-8.5,166,51.5c2.9,5.5,5.4,11.2,7.4,17	C3720.9,3329.7,3687,3411.4,3616.4,3445.8" class="st0"/><g><defs><path id="SVGID_25_" d="M3616.4,3445.8l-671.1,323.6c-60.5,31.4-135,7.9-166.4-52.6c-2.7-5.2-5.1-10.6-7-16.2 c-24.2-74.2,9.4-155,79-190.3l671.1-323.6c60.1-31.6,134.4-8.5,166,51.5c2.9,5.5,5.4,11.2,7.4,17 C3720.9,3329.7,3687,3411.4,3616.4,3445.8"/></defs><clipPath id="SVGID_26_"><use xlink:href="#SVGID_25_" style="overflow:visible"/></clipPath><g class="st13"><rect width="93619.4" height="89717.1" x="-82294.5" y="-22864" class="st0" transform="matrix(0.4563 -0.8898 0.8898 0.4563 -38863.4141 -19617.0137)"/><g><defs><rect id="SVGID_27_" width="93619.4" height="89717.1" x="-82294.5" y="-22864" transform="matrix(0.4563 -0.8898 0.8898 0.4563 -38863.4102 -19617.0117)"/></defs><clipPath id="SVGID_28_"><use xlink:href="#SVGID_27_" style="overflow:visible"/></clipPath><g class="st14"><rect width="1533.4" height="1361.9" x="2469.1" y="2796.4" class="st0" transform="matrix(0.4563 -0.8898 0.8898 0.4563 -1334.9987 4769.7769)"/></g></g></g></g><path d="M2817.8,3035.1L2147,3358.7c-60.1,31.6-134.4,8.5-166-51.5c-2.9-5.5-5.4-11.2-7.4-17	c-24.5-74.5,9.2-155.7,79.2-191l671.1-323.6c60.5-31.4,135-7.9,166.4,52.6c2.7,5.2,5.1,10.6,7,16.2	C2921.5,2918.8,2887.8,2999.8,2817.8,3035.1" class="st0"/><g><defs><path id="SVGID_29_" d="M2817.8,3035.1L2147,3358.7c-60.1,31.6-134.4,8.5-166-51.5c-2.9-5.5-5.4-11.2-7.4-17 c-24.5-74.5,9.2-155.7,79.2-191l671.1-323.6c60.5-31.4,135-7.9,166.4,52.6c2.7,5.2,5.1,10.6,7,16.2 C2921.5,2918.8,2887.8,2999.8,2817.8,3035.1"/></defs><clipPath id="SVGID_30_"><use xlink:href="#SVGID_29_" style="overflow:visible"/></clipPath><g class="st15"><rect width="93619.4" height="89717.1" x="-82551" y="-23991.7" class="st0" transform="matrix(0.4563 -0.8898 0.8898 0.4563 -37999.3984 -20458.3262)"/><g><defs><rect id="SVGID_31_" width="93619.4" height="89717.1" x="-82551" y="-23991.5" transform="matrix(0.4563 -0.8898 0.8898 0.4563 -37999.6133 -20458.1953)"/></defs><clipPath id="SVGID_32_"><use xlink:href="#SVGID_31_" style="overflow:visible"/></clipPath><g class="st16"><rect width="1533.4" height="1361.9" x="1668.8" y="2385.3" class="st0" transform="matrix(0.4563 -0.8898 0.8898 0.4563 -1404.2714 3834.2407)"/></g></g></g></g><path d="M2017.6,2623.9l-670.8,323.6c-60.3,31.5-134.7,8.1-166.2-52.1c-2.8-5.4-5.2-11-7.2-16.7	c-24.1-74.2,9.4-154.8,79-190l672-323.8c60.1-31.6,134.4-8.5,166,51.5c2.9,5.5,5.4,11.2,7.4,17c24.3,74.3-9.2,155.2-79,190.5" class="st0"/><g><defs><path id="SVGID_33_" d="M2017.6,2623.9l-670.8,323.6c-60.3,31.5-134.7,8.1-166.2-52.1c-2.8-5.4-5.2-11-7.2-16.7 c-24.1-74.2,9.4-154.8,79-190l672-323.8c60.1-31.6,134.4-8.5,166,51.5c2.9,5.5,5.4,11.2,7.4,17c24.3,74.3-9.2,155.2-79,190.5"/></defs><clipPath id="SVGID_34_"><use xlink:href="#SVGID_33_" style="overflow:visible"/></clipPath><g class="st17"><rect width="93619.4" height="89717.1" x="-82808" y="-25118.8" class="st0" transform="matrix(0.4563 -0.8898 0.8898 0.4563 -37136.2344 -21299.748)"/><g><defs><rect id="SVGID_35_" width="93619.4" height="89717.1" x="-82808" y="-25118.8" transform="matrix(0.4563 -0.8898 0.8898 0.4563 -37136.2305 -21299.748)"/></defs><clipPath id="SVGID_36_"><use xlink:href="#SVGID_35_" style="overflow:visible"/></clipPath><g class="st18"><rect width="1533.4" height="1361.9" x="867.8" y="1975.1" class="st0" transform="matrix(0.4563 -0.8898 0.8898 0.4563 -1474.7836 2898.4058)"/></g></g></g></g><path d="M1217.1,2212.4L546.3,2536c-60.2,31.6-134.7,8.5-166.3-51.7c-2.9-5.4-5.3-11.1-7.3-16.9	c-23.4-73.9,9.8-153.8,78.7-189.3l671.3-324.8c60.2-31.7,134.7-8.7,166.4,51.5c2.9,5.6,5.4,11.4,7.5,17.3	c25.8,74.3-8.1,156.1-79,190.3" class="st0"/><g><defs><path id="SVGID_37_" d="M1217.1,2212.4L546.3,2536c-60.2,31.6-134.7,8.5-166.3-51.7c-2.9-5.4-5.3-11.1-7.3-16.9 c-23.4-73.9,9.8-153.8,78.7-189.3l671.3-324.8c60.2-31.7,134.7-8.7,166.4,51.5c2.9,5.6,5.4,11.4,7.5,17.3 c25.8,74.3-8.1,156.1-79,190.3"/></defs><clipPath id="SVGID_38_"><use xlink:href="#SVGID_37_" style="overflow:visible"/></clipPath><g class="st19"><rect width="93619.4" height="89717.1" x="-83064.5" y="-26245" class="st0" transform="matrix(0.4563 -0.8898 0.8898 0.4563 -36273.5547 -22140.3105)"/><g><defs><rect id="SVGID_39_" width="93619.4" height="89717.1" x="-83064.7" y="-26245" transform="matrix(0.4563 -0.8898 0.8898 0.4563 -36273.6836 -22140.5234)"/></defs><clipPath id="SVGID_40_"><use xlink:href="#SVGID_39_" style="overflow:visible"/></clipPath><g class="st20"><rect width="1533.4" height="1361.9" x="69.9" y="1564.8" class="st0" transform="matrix(0.4563 -0.8898 0.8898 0.4563 -1543.4426 1965.3815)"/></g></g></g></g></svg>