<svg xmlns="http://www.w3.org/2000/svg" xmlns:xlink="http://www.w3.org/1999/xlink" id="Layer_1" x="0" y="0" version="1.1" viewBox="0 0 200 200" xml:space="preserve" style="enable-background:new 0 0 200 200"><style type="text/css">.st0{clip-path:url(#SVGID_2_);fill:#24215d}</style><switch><g><g><defs><rect id="SVGID_1_" width="135.8" height="134.4" x="20" y="32"/></defs><clipPath id="SVGID_2_"><use xlink:href="#SVGID_1_" style="overflow:visible"/></clipPath><path d="M58.8,121.4c2.6,3.5,2,8.4-1.5,11c-3.5,2.6-8.4,2-11-1.5c-2.6-3.5-2-8.4,1.5-11 C51.2,117.3,56.1,117.9,58.8,121.4" class="st0"/><path d="M83.4,153.7c2.6,3.5,2,8.4-1.5,11c-3.5,2.6-8.4,2-11-1.5c-2.6-3.5-2-8.4,1.5-11 C75.8,149.6,80.8,150.3,83.4,153.7" class="st0"/><path d="M34.1,89.1c2.6,3.5,2,8.4-1.5,11c-3.5,2.6-8.4,2-11-1.5c-2.6-3.5-2-8.4,1.5-11 C26.5,84.9,31.5,85.6,34.1,89.1" class="st0"/><path d="M129.6,67.4c2.6,3.5,2,8.4-1.5,11c-3.5,2.6-8.4,2-11-1.5c-2.6-3.5-2-8.4,1.5-11 C122,63.3,126.9,64,129.6,67.4" class="st0"/><path d="M154.2,99.8c2.6,3.5,2,8.4-1.5,11c-3.5,2.6-8.4,2-11-1.5c-2.6-3.5-2-8.4,1.5-11 C146.6,95.7,151.6,96.3,154.2,99.8" class="st0"/><path d="M104.9,35.1c2.6,3.5,2,8.4-1.5,11c-3.5,2.6-8.4,2-11-1.5c-2.6-3.5-2-8.4,1.5-11 C97.4,31,102.3,31.6,104.9,35.1" class="st0"/><path d="M94.2,94.4c2.6,3.5,2,8.4-1.5,11c-3.5,2.6-8.4,2-11-1.5c-2.6-3.5-2-8.4,1.5-11C86.6,90.3,91.5,91,94.2,94.4" class="st0"/><path d="M118.8,126.8c2.6,3.5,2,8.4-1.5,11c-3.5,2.6-8.4,2-11-1.5c-2.6-3.5-2-8.4,1.5-11S116.2,123.3,118.8,126.8" class="st0"/><path d="M69.5,62.1c2.6,3.5,2,8.4-1.5,11c-3.5,2.6-8.4,2-11-1.5c-2.6-3.5-2-8.4,1.5-11C61.9,58,66.9,58.6,69.5,62.1" class="st0"/></g></g></switch></svg>