<?xml version="1.0" encoding="UTF-8" standalone="no"?>
<svg
   xmlns:dc="http://purl.org/dc/elements/1.1/"
   xmlns:cc="http://creativecommons.org/ns#"
   xmlns:rdf="http://www.w3.org/1999/02/22-rdf-syntax-ns#"
   xmlns:svg="http://www.w3.org/2000/svg"
   xmlns="http://www.w3.org/2000/svg"
   xmlns:sodipodi="http://sodipodi.sourceforge.net/DTD/sodipodi-0.dtd"
   xmlns:inkscape="http://www.inkscape.org/namespaces/inkscape"
   viewBox="0 0 72 48.24"
   version="1.1"
   id="svg16"
   sodipodi:docname="kind.svg"
   inkscape:version="0.92.3 (2405546, 2018-03-11)">
  <metadata
     id="metadata22">
    <rdf:RDF>
      <cc:Work
         rdf:about="">
        <dc:format>image/svg+xml</dc:format>
        <dc:type
           rdf:resource="http://purl.org/dc/dcmitype/StillImage" />
      </cc:Work>
    </rdf:RDF>
  </metadata>
  <defs
     id="defs20" />
  <sodipodi:namedview
     pagecolor="#ffffff"
     bordercolor="#666666"
     borderopacity="1"
     objecttolerance="10"
     gridtolerance="10"
     guidetolerance="10"
     inkscape:pageopacity="0"
     inkscape:pageshadow="2"
     inkscape:window-width="811"
     inkscape:window-height="480"
     id="namedview18"
     showgrid="false"
     inkscape:zoom="4.0694444"
     inkscape:cx="39.440273"
     inkscape:cy="24.120001"
     inkscape:window-x="0"
     inkscape:window-y="27"
     inkscape:window-maximized="0"
     inkscape:current-layer="svg16" />
  <path
     d="M54 0h18v26.15H54z"
     fill="#61b3e4"
     id="path2" />
  <path
     d="M36 0h18v26.15H36z"
     fill="#b9be10"
     id="path4" />
  <path
     d="M18 0h18v26.15H18z"
     fill="#d8262e"
     id="path6" />
  <path
     d="M0 0h18v26.15H0z"
     fill="#eda900"
     id="path8" />
  <g
     fill="#fff"
     id="g14"
     style="fill:#000000;fill-opacity:1">
    <path
       d="M69.75 28.46a1.12 1.12 0 0 0 2.24 0 1.12 1.12 0 0 0-2.24 0zm1.97 0c0 .5-.38.88-.85.88s-.84-.4-.84-.88c0-.48.38-.88.84-.88.47 0 .85.4.85.88z"
       id="path10"
       style="fill:#000000;fill-opacity:1" />
    <path
       d="M70.5 28.97h.18v-.43h.15l.26.43h.2l-.28-.44c.15-.03.26-.1.26-.3s-.13-.3-.38-.3h-.4v1.02zm.18-.87h.2c.1 0 .23.02.23.14 0 .14-.1.15-.24.15h-.18v-.3zM0 26.15v21.6h4.3v-7l2.1-2.13 6.45 9.13h5.62L9.45 35.42l8.58-8.6h3.54v20.92h4.34V26.82h5.57v20.92h4.07V32.9l8.52 14.85h4.37V26.82H54v20.92h9.02c3.16 0 5.5-1.3 7.02-3.9 1.12-1.93 1.68-4.3 1.68-7.07 0-1.1-.13-2.25-.4-3.46s-.76-2.34-1.5-3.38c-.9-1.3-2.1-2.17-3.57-2.65-.8-.27-1.82-.42-3.02-.45H72v-.68H0zm66.27 6c.67 1.14 1 2.78 1 4.9 0 1.54-.22 2.87-.67 4-.82 2.03-2.26 3.05-4.32 3.05h-4.04V30.45h4.04c2 0 3.32.57 4 1.7zM4.3 35.44v-8.6h8.08l-8.08 8.6zm40.06 5.97l-8.3-14.58h8.3V41.4z"
       id="path12"
       style="fill:#000000;fill-opacity:1" />
  </g>
</svg>
