<svg xmlns="http://www.w3.org/2000/svg" xmlns:svg="http://www.w3.org/2000/svg" id="svg16" version="1.1" viewBox="0 0 72 48.24"><metadata id="metadata22"/><path id="path2" fill="#61b3e4" d="M54 0h18v26.15H54z"/><path id="path4" fill="#b9be10" d="M36 0h18v26.15H36z"/><path id="path6" fill="#d8262e" d="M18 0h18v26.15H18z"/><path id="path8" fill="#eda900" d="M0 0h18v26.15H0z"/><g id="g14" fill="#fff" style="fill:#000;fill-opacity:1"><path id="path10" d="M69.75 28.46a1.12 1.12 0 0 0 2.24 0 1.12 1.12 0 0 0-2.24 0zm1.97 0c0 .5-.38.88-.85.88s-.84-.4-.84-.88c0-.48.38-.88.84-.88.47 0 .85.4.85.88z" style="fill:#000;fill-opacity:1"/><path id="path12" d="M70.5 28.97h.18v-.43h.15l.26.43h.2l-.28-.44c.15-.03.26-.1.26-.3s-.13-.3-.38-.3h-.4v1.02zm.18-.87h.2c.1 0 .23.02.23.14 0 .14-.1.15-.24.15h-.18v-.3zM0 26.15v21.6h4.3v-7l2.1-2.13 6.45 9.13h5.62L9.45 35.42l8.58-8.6h3.54v20.92h4.34V26.82h5.57v20.92h4.07V32.9l8.52 14.85h4.37V26.82H54v20.92h9.02c3.16 0 5.5-1.3 7.02-3.9 1.12-1.93 1.68-4.3 1.68-7.07 0-1.1-.13-2.25-.4-3.46s-.76-2.34-1.5-3.38c-.9-1.3-2.1-2.17-3.57-2.65-.8-.27-1.82-.42-3.02-.45H72v-.68H0zm66.27 6c.67 1.14 1 2.78 1 4.9 0 1.54-.22 2.87-.67 4-.82 2.03-2.26 3.05-4.32 3.05h-4.04V30.45h4.04c2 0 3.32.57 4 1.7zM4.3 35.44v-8.6h8.08l-8.08 8.6zm40.06 5.97l-8.3-14.58h8.3V41.4z" style="fill:#000;fill-opacity:1"/></g></svg>