<?xml version="1.0" encoding="UTF-8" standalone="no"?>
<!-- Generator: Adobe Illustrator 19.2.1, SVG Export Plug-In . SVG Version: 6.00 Build 0)  -->

<svg
   xmlns:dc="http://purl.org/dc/elements/1.1/"
   xmlns:cc="http://creativecommons.org/ns#"
   xmlns:rdf="http://www.w3.org/1999/02/22-rdf-syntax-ns#"
   xmlns:svg="http://www.w3.org/2000/svg"
   xmlns="http://www.w3.org/2000/svg"
   xmlns:sodipodi="http://sodipodi.sourceforge.net/DTD/sodipodi-0.dtd"
   xmlns:inkscape="http://www.inkscape.org/namespaces/inkscape"
   version="1.1"
   id="Layer_1"
   x="0px"
   y="0px"
   viewBox="0 0 660 225"
   style="enable-background:new 0 0 660 225;"
   xml:space="preserve"
   sodipodi:docname="stickerMule.svg"
   inkscape:version="0.92.3 (2405546, 2018-03-11)"><metadata
   id="metadata38"><rdf:RDF><cc:Work
       rdf:about=""><dc:format>image/svg+xml</dc:format><dc:type
         rdf:resource="http://purl.org/dc/dcmitype/StillImage" /></cc:Work></rdf:RDF></metadata><defs
   id="defs36" /><sodipodi:namedview
   pagecolor="#ffffff"
   bordercolor="#666666"
   borderopacity="1"
   objecttolerance="10"
   gridtolerance="10"
   guidetolerance="10"
   inkscape:pageopacity="0"
   inkscape:pageshadow="2"
   inkscape:window-width="1885"
   inkscape:window-height="1016"
   id="namedview34"
   showgrid="false"
   inkscape:zoom="0.44393939"
   inkscape:cx="-117.13311"
   inkscape:cy="112.5"
   inkscape:window-x="35"
   inkscape:window-y="27"
   inkscape:window-maximized="1"
   inkscape:current-layer="Layer_1" />
<style
   type="text/css"
   id="style2">
	.Arched_x0020_Green{fill:url(#SVGID_1_);stroke:#FFFFFF;stroke-width:0.25;stroke-miterlimit:1;}
	.st0{fill:#4E2817;}
	.st1{fill-rule:evenodd;clip-rule:evenodd;fill:#4E2817;}
	.st2{fill:#F26922;}
</style>
<linearGradient
   id="SVGID_1_"
   gradientUnits="userSpaceOnUse"
   x1="330.3069"
   y1="115.7228"
   x2="331.014"
   y2="115.0157">
	<stop
   offset="0"
   style="stop-color:#1EAB4B"
   id="stop4" />
	<stop
   offset="0.9831"
   style="stop-color:#19361A"
   id="stop6" />
</linearGradient>
<path
   class="st0"
   d="m 145.41854,152.26063 c -8.6567,0 -16.59201,-0.96185 -23.56547,-7.93531 l 9.0174,-9.01739 c 4.56882,4.56881 10.46018,5.16997 14.78853,5.16997 4.80928,0 9.73879,-1.56302 9.73879,-5.77113 0,-2.76534 -1.44278,-4.68905 -5.89137,-5.04975 l -8.6567,-0.84162 c -9.97925,-0.96186 -16.11108,-5.29021 -16.11108,-15.50992 0,-11.42204 10.09949,-17.674101 21.40129,-17.674101 8.6567,0 15.87062,1.442783 21.16082,6.492521 l -8.53646,8.65671 c -3.24627,-2.88557 -8.05555,-3.7272 -12.86482,-3.7272 -5.53067,0 -7.81508,2.52488 -7.81508,5.29021 0,2.04394 0.84162,4.32835 5.77113,4.80928 l 8.6567,0.84162 c 10.94111,1.08209 16.47178,6.85322 16.47178,16.23132 0,12.26366 -10.46018,18.03479 -23.56546,18.03479 z"
   id="path9"
   inkscape:connector-curvature="0"
   style="fill:#4e2817;stroke-width:1.20231962" />
<path
   class="st0"
   d="m 193.03039,151.65947 c -11.3018,0 -15.99085,-7.93531 -15.99085,-15.87062 v -27.41288 h -5.89136 V 97.915786 h 5.89136 V 81.56424 h 13.82668 v 16.351546 h 9.73879 v 10.460184 h -9.73879 v 26.57126 c 0,3.12603 1.44278,5.04974 4.80928,5.04974 h 5.04974 v 11.6625 z"
   id="path11"
   inkscape:connector-curvature="0"
   style="fill:#4e2817;stroke-width:1.20231962" />
<path
   class="st0"
   d="M 206.73684,86.854446 V 75.552642 h 14.18737 v 11.301804 z m 0.24046,64.805024 V 96.352771 h 13.82668 v 55.306699 z"
   id="path13"
   inkscape:connector-curvature="0"
   style="fill:#4e2817;stroke-width:1.20231962" />
<path
   class="st0"
   d="m 251.94405,152.26063 c -11.06134,0 -24.76778,-5.89136 -24.76778,-28.37474 0,-22.36315 13.70644,-28.254511 24.76778,-28.254511 7.69485,0 13.34575,2.284407 18.27526,7.454381 l -9.37809,9.37809 c -2.88557,-3.12603 -5.29021,-4.32835 -8.89717,-4.32835 -3.24626,0 -5.89136,1.20232 -7.81507,3.60696 -2.16418,2.6451 -3.12603,6.3723 -3.12603,12.26366 0,5.89137 0.96185,9.61856 3.12603,12.38389 2.04394,2.40464 4.56881,3.60696 7.81507,3.60696 3.60696,0 6.0116,-1.32255 8.89717,-4.32835 l 9.37809,9.25786 c -4.92951,4.92951 -10.58041,7.33415 -18.27526,7.33415 z"
   id="path15"
   inkscape:connector-curvature="0"
   style="fill:#4e2817;stroke-width:1.20231962" />
<path
   class="st0"
   d="m 308.33284,151.65947 -13.58621,-23.08453 -5.89136,6.61275 v 16.47178 h -13.82668 v -75.6259 h 13.82668 v 42.92281 L 307.25075,96.352771 H 323.963 l -19.71804,22.363139 21.28105,33.06379 h -17.19317 z"
   id="path17"
   inkscape:connector-curvature="0"
   style="fill:#4e2817;stroke-width:1.20231962" />
<path
   class="st0"
   d="m 336.94805,128.21424 c 0,7.09369 4.32835,12.26366 12.14343,12.26366 6.01159,0 9.01739,-1.68325 12.50412,-5.16997 l 8.41624,8.17577 c -5.6509,5.6509 -11.06134,8.6567 -21.0406,8.6567 -13.10528,0 -25.6094,-5.89137 -25.6094,-28.37474 0,-18.0348 9.73879,-28.254513 24.16662,-28.254513 15.38969,0 24.16662,11.301803 24.16662,26.451033 v 6.13183 h -34.74703 z m 19.83827,-15.38969 c -1.44278,-3.24626 -4.56881,-5.77114 -9.25786,-5.77114 -4.68905,0 -7.81508,2.40464 -9.25786,5.77114 -0.84162,2.04394 -1.20232,3.48673 -1.32255,5.89136 h 21.04059 c -0.12023,-2.40463 -0.36069,-3.84742 -1.20232,-5.89136 z"
   id="path19"
   inkscape:connector-curvature="0"
   style="fill:#4e2817;stroke-width:1.20231962" />
<path
   class="st0"
   d="m 408.2456,111.38177 c -2.16417,-2.16418 -3.96765,-3.24627 -7.33415,-3.24627 -4.20812,0 -8.89716,3.24627 -8.89716,10.21972 v 33.30425 H 378.18761 V 96.352771 h 13.46598 v 5.290209 c 2.6451,-3.246266 7.93531,-5.891369 13.94691,-5.891369 5.41044,0 9.25786,1.322551 13.10528,5.169979 z"
   id="path21"
   inkscape:connector-curvature="0"
   style="fill:#4e2817;stroke-width:1.20231962" />
<path
   class="st1"
   d="m 79.290961,157.7913 c -0.841624,0.3607 -1.923712,0.24047 -3.005799,0.3607 -0.961856,0 -2.284407,0 -2.885567,-0.48093 -0.360696,-0.24046 -0.360696,-0.84162 -0.360696,-1.20232 0,-0.3607 0.120232,-0.96186 0.120232,-1.32255 0.120232,-0.48093 0.240464,-1.20232 0,-1.56302 -0.240464,-0.36069 -1.082088,-0.24046 -1.563016,-0.48092 -0.480927,-0.24047 -0.601159,-0.96186 -0.721391,-1.68325 0,-0.24047 -0.240464,-0.48093 -0.240464,-0.60116 -0.120232,-1.08209 0.240464,-2.64511 0.480928,-3.72719 0.240463,-1.20232 0.601159,-2.28441 0.841623,-3.48673 0.360696,-1.68325 0.360696,-3.60696 0.240464,-5.41044 0,-0.96185 -0.240464,-1.68325 0,-2.40464 0.120232,-0.72139 0.480928,-1.32255 0.60116,-2.04394 0,-0.24046 0,-0.48093 0,-0.72139 0,-0.24047 0.120232,-0.3607 0.120232,-0.60116 0,-0.48093 -0.120232,-1.08209 -0.120232,-1.68325 -0.120232,-1.56301 0,-3.84742 0.120232,-5.16997 0,-0.48093 0.240464,-0.96186 -0.120232,-1.20232 -1.683247,0 -3.126031,0.24046 -4.689046,0.48092 -4.087887,0.48093 -9.378093,0.60116 -13.345748,-0.24046 -0.360696,-0.12023 -0.721392,-0.12023 -1.082087,-0.12023 -2.885567,-0.60116 -5.410439,-1.92371 -7.454382,-3.48673 -0.360696,-0.24046 -0.721392,-0.48093 -1.082088,-0.84162 -0.360695,-0.24047 -0.721391,-0.60116 -1.082087,-0.84163 -1.563016,-0.72139 -3.727191,0.12024 -4.448583,1.20232 -0.240464,0.3607 -0.480928,0.96186 -0.721391,1.44279 -0.240464,0.48093 -0.480928,0.96185 -0.60116,1.44278 -1.082088,2.40464 -2.284407,4.80928 -3.366495,7.21392 -0.60116,1.44278 -1.322552,3.0058 -1.803479,4.56881 -0.961856,3.3665 -0.120232,7.81508 0.721391,11.06134 0.120232,0.24047 0.240464,0.60116 0.360696,0.96186 0.240464,0.72139 0.721392,1.80348 1.322552,2.28441 0.360696,0.24046 0.841623,0.48092 1.202319,0.72139 0.480928,0.36069 0.721392,1.08209 1.082088,1.80348 0.120232,0.24046 0.360696,0.60116 0.480928,0.96185 0.360696,0.72139 0.60116,1.32255 -0.240464,1.80348 -0.60116,0.3607 -1.563016,0.3607 -2.404639,0.48093 -0.360696,0.12023 -0.240464,0.60116 -0.480928,0.84162 -0.120232,0.12024 -0.721392,0.3607 -0.961856,0.48093 -1.082087,0.3607 -3.005799,0.3607 -3.847422,0 -0.480928,-0.12023 -0.961856,-0.48093 -1.082088,-0.84162 -0.240464,-0.72139 0.360696,-1.56302 -0.120232,-2.04395 -0.240464,-0.24046 -0.721392,-0.24046 -1.082088,-0.36069 -0.60116,-0.24046 -1.082087,-0.84162 -1.442783,-1.44278 -0.60116,-1.68325 -0.240464,-4.20812 -0.360696,-6.25207 0,-0.60116 -0.120232,-1.20232 -0.120232,-1.92371 0,-1.20232 -0.360696,-2.40464 -0.480928,-3.60696 -0.120232,-0.60116 -0.240464,-1.08208 -0.360696,-1.56301 -0.240464,-0.84163 -0.360696,-1.80348 -0.60116,-2.6451 -0.240463,-0.96186 -0.240463,-1.92372 0,-2.64511 0.120232,-0.24046 0.360696,-0.48093 0.480928,-0.72139 0.240464,-0.48093 0.240464,-0.96186 0.240464,-1.44278 -0.120232,-0.24047 -0.721392,0 -0.841624,-0.24047 -0.360695,-2.6451 -0.721391,-5.16997 -0.961855,-7.93531 -0.120232,-0.96185 -0.120232,-1.80348 -0.120232,-2.76533 -0.120232,-1.80348 0,-3.72719 -0.240464,-5.53067 -0.120232,-0.84163 -0.240464,-1.68325 -0.360696,-2.52487 -0.360696,-2.40464 -0.961856,-5.41044 -0.480928,-7.93531 0.360696,-1.56302 0.841624,-2.88557 1.80348,-4.08789 0.601159,-0.841622 1.322551,-1.563014 2.043943,-2.404638 0.721392,-0.721392 1.563015,-1.442783 2.404639,-2.043943 0.60116,-0.360696 1.20232,-0.841624 1.803479,-1.20232 1.322552,-0.60116 3.126031,-1.202319 5.049743,-1.322551 1.923711,-0.120232 4.087886,-0.120232 5.891366,0.240464 1.803479,0.360696 3.606958,0.601159 5.410438,0.961855 1.683247,0.360696 3.366495,0.841624 5.049742,1.20232 0.240464,0 0.360696,0.240464 0.60116,0.240464 0.480928,0.120232 1.082088,0.120232 1.683247,0.360696 1.563016,0.360696 3.486727,0.601159 5.410439,0.601159 2.043943,0 3.847422,0 5.53067,-0.480927 0.240464,-0.120232 0.480927,-0.240464 0.721391,-0.240464 0.240464,-0.120232 0.60116,-0.120232 0.841624,-0.120232 0.120232,0 0.360696,-0.240464 0.480928,-0.360696 0.961856,-0.480928 1.803479,-0.961856 2.645103,-1.563016 0.721392,-0.480927 1.20232,-0.841623 2.164175,-1.202319 0.360696,-0.120232 0.841624,-0.360696 1.20232,-0.480928 0.841624,-0.240464 1.803479,-0.480928 2.404639,-0.961856 1.082088,-0.601159 1.803479,-1.563015 2.645103,-2.404639 0.841624,-0.721392 1.80348,-1.563015 2.765335,-2.284407 1.923712,-1.563016 3.847423,-2.885567 5.650902,-4.328351 0.961856,-0.721391 1.923712,-1.442783 3.005799,-2.043943 2.043944,-1.202319 4.208119,-2.524871 7.213918,-2.765335 1.202319,-0.120232 2.404639,-0.120232 3.606963,0 0.36069,0 0.72139,0.240464 1.08208,0.120232 0.3607,-0.120232 0.60116,-0.60116 0.72139,-0.961856 0.48093,-0.841623 0.7214,-1.322551 1.20232,-2.284407 0.24047,-0.60116 0.12024,-1.202319 0.7214,-1.202319 0.60116,0 0.48092,1.563015 0.48092,2.164175 0,0.721392 -0.12023,1.683247 0,2.164175 0.12024,0.360696 0.60116,0.841624 1.08209,0.841624 0.3607,0 0.60116,-0.240464 0.84163,-0.480928 0.36069,-0.240464 0.60116,-0.240464 0.84162,-0.480928 0.48093,-0.360696 1.08209,-0.961856 1.56301,-1.442783 0.3607,-0.360696 1.08209,-1.442784 1.68325,-1.322552 1.20232,0.120232 0,1.923711 -0.24046,2.404639 -0.60116,1.322552 -1.20232,2.404639 -1.92371,3.606959 -0.24047,0.480928 -0.96186,1.20232 -0.96186,1.803479 0,0.360696 0.3607,0.60116 0.48093,1.082088 0.12023,0.240464 0.12023,0.360696 0.24046,0.60116 0.3607,0.961855 0.72139,2.284407 1.08209,3.366495 0.24046,0.961855 0.48093,1.923711 0.84162,2.765335 0.3607,0.841623 0.84163,1.683247 1.20232,2.645103 0.12024,0.240464 0.12024,0.480928 0.24047,0.721392 0.72139,1.923711 1.44278,4.087886 2.40464,6.011597 0.36069,0.721397 0.84162,1.683247 0.84162,2.765337 0,1.20232 -0.60116,1.80348 -1.20232,2.76533 -0.24046,0.48093 -0.72139,1.20232 -1.20232,1.32256 -0.36069,0.12023 -0.72139,0 -1.08209,0 -0.48092,0.12023 -0.84162,0.36069 -1.20232,0.36069 -1.08208,0.12023 -2.16417,-0.72139 -2.40463,-1.56301 -0.12024,-0.24047 0,-0.60116 -0.12024,-0.96186 -0.24046,-1.32255 -0.96185,-1.92371 -1.80348,-2.88557 -0.60116,-0.60116 -1.08208,-0.96185 -1.80348,-1.32255 -1.08208,-0.601158 -2.16417,-0.841622 -3.36649,-1.442782 -0.3607,-0.240464 -0.961856,-0.480928 -1.322552,-0.360696 -0.60116,0.120232 -1.20232,1.082088 -1.683248,1.683247 -2.885567,3.847421 -5.53067,7.815081 -8.296005,11.542271 -1.923711,2.52487 -3.847422,5.04974 -5.410438,7.81507 -0.360696,0.7214 -0.60116,1.56302 -0.961856,2.40464 -0.240463,0.84163 -0.480927,1.68325 -0.721391,2.64511 -1.082088,3.12603 -1.442784,6.97345 -2.404639,10.21971 -0.120232,0.3607 -0.120232,0.7214 -0.240464,1.08209 -0.480928,1.68325 -0.961856,3.60696 -1.442784,5.41044 -0.360696,1.32255 -0.480928,3.12603 -0.60116,4.80928 0,1.68325 -0.120232,3.96765 0.480928,4.92951 0.360696,0.60116 1.442784,0.72139 1.80348,1.32255 0.240463,0.3607 0.480927,1.20232 0.841623,1.68325 0.240464,0.36069 0.841624,1.08208 0.721392,1.68324 0,0.3607 -0.360696,0.7214 -0.721392,0.84163 -0.360696,0.12023 -0.841623,0.12023 -1.202319,0.24046 0,0.48093 0.120232,0.96186 -0.240464,1.20232 z"
   id="path23"
   inkscape:connector-curvature="0"
   style="clip-rule:evenodd;fill:#4e2817;fill-rule:evenodd;stroke-width:1.20231962" />
<path
   class="st2"
   d="m 480.74547,95.631379 c -6.85322,0 -11.90296,2.164175 -16.59201,6.973451 -3.48673,-4.809276 -8.53647,-6.973451 -14.6683,-6.973451 -5.04974,0 -10.21971,2.043943 -13.82667,5.771131 v -5.049739 h -13.46598 v 55.306699 h 13.82667 v -33.42448 c 0,-7.57462 4.92951,-10.09949 9.25786,-10.09949 4.32835,0 9.13763,2.52487 9.13763,10.09949 v 33.42448 h 13.82668 v -33.78518 c 0,-7.21392 5.04974,-9.73879 9.25786,-9.73879 4.32835,0 9.13763,2.52487 9.13763,10.09949 v 33.42448 h 13.82667 v -35.34819 c 0,-6.0116 -1.56301,-11.30181 -6.0116,-15.75039 -3.24626,-3.126032 -8.17577,-4.929511 -13.70644,-4.929511 z"
   id="path25"
   inkscape:connector-curvature="0"
   style="fill:#f26922;stroke-width:1.20231962" />
<path
   class="st2"
   d="m 540.74122,129.77726 c 0,7.57461 -4.92951,10.09948 -9.25786,10.09948 -4.32835,0 -9.13763,-2.52487 -9.13763,-10.09948 V 96.232539 h -13.82668 v 35.468431 c 0,6.01159 1.20232,11.3018 5.65091,15.75038 3.12603,3.12603 7.57461,4.92951 13.10528,4.92951 5.04974,0 10.21972,-1.92371 13.82667,-5.77113 v 5.04974 h 13.46598 V 96.352771 h -13.82667 z"
   id="path27"
   inkscape:connector-curvature="0"
   style="fill:#f26922;stroke-width:1.20231962" />
<path
   class="st2"
   d="M 577.1715,134.94723 V 76.03357 h -13.82667 v 59.75528 c 0,7.81508 4.80928,15.87062 16.11108,15.87062 h 7.81508 v -11.6625 h -5.29021 c -3.48673,0 -4.80928,-1.68325 -4.80928,-5.04974 z"
   id="path29"
   inkscape:connector-curvature="0"
   style="fill:#f26922;stroke-width:1.20231962" />
<path
   class="st2"
   d="m 638.00887,122.08241 c 0,-15.14923 -8.6567,-26.451031 -24.16662,-26.451031 -14.3076,0 -24.16662,10.219721 -24.16662,28.254511 0,22.36314 12.50412,28.37474 25.6094,28.37474 9.97926,0 15.38969,-3.12603 21.0406,-8.6567 l -8.41624,-8.17577 c -3.48673,3.48672 -6.49253,5.16997 -12.50412,5.16997 -7.81508,0 -12.14343,-5.16997 -12.14343,-12.26366 h 34.6268 v -6.25206 z m -34.6268,-3.24626 c 0.12023,-2.40464 0.48093,-3.96766 1.32255,-5.89137 1.44278,-3.24626 4.56882,-5.77113 9.25786,-5.77113 4.68905,0 7.69485,2.40464 9.25786,5.77113 0.84163,2.04394 1.20232,3.48673 1.32255,5.89137 z"
   id="path31"
   inkscape:connector-curvature="0"
   style="fill:#f26922;stroke-width:1.20231962" />
</svg>