<svg xmlns="http://www.w3.org/2000/svg" xmlns:xlink="http://www.w3.org/1999/xlink" viewBox="0 0 200 200"><style><![CDATA[.S{fill:#2fb5e3}]]></style><defs><path id="A" d="M104.3 159.3c.9-.9 2.4-.9 3.4 0l14 13.5c1 .9 1 2.5.2 3.4l-12.7 13.2c-.9.9-2.4.9-3.4 0l-14-13.5c-1-.9-1-2.5-.2-3.4l12.7-13.2z"/></defs><clipPath id="B"><use xlink:href="#A"/></clipPath><g clip-path="url(#B)"><defs><path id="C" d="M-6012-3821.8H903.9V529.5H-6012z"/></defs><clipPath id="D"><use xlink:href="#C"/></clipPath><path transform="matrix(.6947 -.7193 .7193 .6947 -92.793 129.9808)" d="M71.2 138.1h71v72.4h-71z" clip-path="url(#D)" class="S"/></g><defs><path id="E" d="M63.1 119.5c.9-.9 2.4-.9 3.4 0l14 13.5c1 .9 1 2.5.2 3.4L68 149.6c-.9.9-2.4.9-3.4 0l-14-13.5c-1-.9-1-2.5-.2-3.4l12.7-13.2z"/></defs><clipPath id="F"><use xlink:href="#E"/></clipPath><g clip-path="url(#F)"><defs><path id="G" d="M-6012-3821.8H903.9V529.5H-6012z"/></defs><clipPath id="H"><use xlink:href="#G"/></clipPath><path transform="matrix(.6947 -.7193 .7193 .6947 -76.7511 88.1903)" d="M30 98.3h71v72.4H30z" clip-path="url(#H)" class="S"/></g><defs><path id="I" d="M21.9 79.7c.9-.9 2.4-.9 3.4 0l14 13.5c1 .9 1 2.5.2 3.4l-12.7 13.2c-.9.9-2.4.9-3.4 0l-14-13.5c-1-.9-1-2.5-.2-3.4l12.7-13.2z"/></defs><clipPath id="J"><use xlink:href="#I"/></clipPath><g clip-path="url(#J)"><defs><path id="K" d="M-6012-3821.8H903.9V529.5H-6012z"/></defs><clipPath id="L"><use xlink:href="#K"/></clipPath><path transform="matrix(.6947 -.7193 .7193 .6947 -60.7093 46.3999)" d="M-11.2 58.5h71v72.4h-71z" clip-path="url(#L)" class="S"/></g><defs><path id="M" d="M138.9 123.4c.9-.9 2.4-.9 3.4 0l14 13.5c1 .9 1 2.5.2 3.4l-12.7 13.2c-.9.9-2.4.9-3.4 0l-14-13.5c-1-.9-1-2.5-.2-3.4l12.7-13.2z"/></defs><clipPath id="N"><use xlink:href="#M"/></clipPath><g clip-path="url(#N)"><defs><path id="O" d="M-6012-3821.8H903.9V529.5H-6012z"/></defs><clipPath id="P"><use xlink:href="#O"/></clipPath><path transform="matrix(.6947 -.7193 .7193 .6947 -56.4171 143.9442)" d="M105.9 102.2h71v72.4h-71z" clip-path="url(#P)" class="S"/></g><defs><path id="Q" d="M97.7 83.6c.9-.9 2.4-.9 3.4 0l14 13.5c1 .9 1 2.5.2 3.4l-12.7 13.2c-.9.9-2.4.9-3.4 0l-14-13.5c-1-.9-1-2.5-.2-3.4l12.7-13.2z"/></defs><clipPath id="R"><use xlink:href="#Q"/></clipPath><g clip-path="url(#R)"><defs><path id="S" d="M-6012-3821.8H903.9V529.5H-6012z"/></defs><clipPath id="T"><use xlink:href="#S"/></clipPath><path transform="matrix(.6947 -.7193 .7193 .6947 -40.3752 102.1537)" d="M64.7 62.5h71v72.4h-71z" clip-path="url(#T)" class="S"/></g><defs><path id="U" d="M56.5 43.8c.9-.9 2.4-.9 3.4 0l14 13.5c1 .9 1 2.5.2 3.4L61.3 73.9c-.9.9-2.4.9-3.4 0L44 60.4c-1-.9-1-2.5-.2-3.4l12.7-13.2z"/></defs><clipPath id="V"><use xlink:href="#U"/></clipPath><g clip-path="url(#V)"><defs><path id="W" d="M-6012-3821.8H903.9V529.5H-6012z"/></defs><clipPath id="X"><use xlink:href="#W"/></clipPath><path transform="matrix(.6947 -.7193 .7193 .6947 -24.3334 60.3632)" d="M23.5 22.7h71v72.4h-71z" clip-path="url(#X)" class="S"/></g><defs><path id="Y" d="M173.6 87.5c.9-.9 2.4-.9 3.4 0l14 13.5c1 .9 1 2.5.2 3.4l-12.7 13.2c-.9.9-2.4.9-3.4 0l-14-13.5c-1-.9-1-2.5-.2-3.4l12.7-13.2z"/></defs><clipPath id="Z"><use xlink:href="#Y"/></clipPath><g clip-path="url(#Z)"><defs><path id="a" d="M-6012-3821.8H903.9V529.5H-6012z"/></defs><clipPath id="b"><use xlink:href="#a"/></clipPath><path transform="matrix(.6947 -.7193 .7193 .6947 -20.0413 157.9077)" d="M140.5 66.4h71v72.4h-71z" clip-path="url(#b)" class="S"/></g><defs><path id="c" d="M132.4 47.7c.9-.9 2.4-.9 3.4 0l14 13.5c1 .9 1 2.5.2 3.4l-12.7 13.2c-.9.9-2.4.9-3.4 0l-14-13.5c-1-.9-1-2.5-.2-3.4l12.7-13.2z"/></defs><clipPath id="d"><use xlink:href="#c"/></clipPath><g clip-path="url(#d)"><defs><path id="e" d="M-6012-3821.8H903.9V529.5H-6012z"/></defs><clipPath id="f"><use xlink:href="#e"/></clipPath><path transform="matrix(.6947 -.7193 .7193 .6947 -3.9994 116.1171)" d="M99.3 26.6h71V99h-71z" clip-path="url(#f)" class="S"/></g><defs><path id="g" d="M91.2 8c.9-1 2.4-1 3.4 0l14 13.5c1 .9 1 2.5.2 3.4L96 38c-.9.9-2.4.9-3.4 0l-14-13.5c-1-.9-1-2.5-.2-3.4L91.2 8z"/></defs><clipPath id="h"><use xlink:href="#g"/></clipPath><g clip-path="url(#h)"><defs><path id="i" d="M-6012-3821.8H903.9V529.5H-6012z"/></defs><clipPath id="j"><use xlink:href="#i"/></clipPath><path transform="matrix(.6947 -.7193 .7193 .6947 12.0424 74.3266)" d="M58.1-13.2h71v72.4h-71z" clip-path="url(#j)" class="S"/></g></svg>