<svg xmlns="http://www.w3.org/2000/svg" xmlns:xlink="http://www.w3.org/1999/xlink" viewBox="0 0 200 200"><defs><path id="A" d="M176.2 46.6c0-.1-.1-.1-.1-.2-.3-.4-.6-.8-.8-1.2h-.1C145 4.1 87.3-5.4 45.6 24.3c-42.2 30-52.2 88.5-22.3 130.8l.5-.4-.5.3c30.3 42 88.9 51.5 130.9 21.1 41.5-29.9 51.1-87.6 22-129.5m-29.6 119.2c-36.2 26.2-86.8 18-113-18.2C7.9 111.1 16.5 60.6 53 34.7c36.4-25.8 86.8-17.2 112.7 19.1 25.1 36.3 16.8 86.1-19.1 112"/></defs><clipPath id="B"><use xlink:href="#A"/></clipPath><g clip-path="url(#B)"><defs><path id="C" d="M-7517.6-1738.3h8976v8602h-8976z"/></defs><clipPath id="D"><use xlink:href="#C"/></clipPath><path d="M-25.2-24.2h249.3v249.3H-25.2z" clip-path="url(#D)" fill="#ef9b75"/></g></svg>