<svg xmlns="http://www.w3.org/2000/svg" xmlns:xlink="http://www.w3.org/1999/xlink" viewBox="0 0 200 200"><style>.U{fill:#ef9b75}</style><defs><path id="A" d="M52.5 89.1L47 122.5c-.6 3.4-3.7 5.6-7.1 4.7-3.3-.9-5.6-4.4-5-7.9l5.5-33.5c.6-3.4 3.7-5.6 7.1-4.7 3.3 1 5.6 4.5 5 8"/></defs><clipPath id="B"><use xlink:href="#A"/></clipPath><g clip-path="url(#B)"><defs><path id="C" d="M-152.8-1136.4h4256.1v4078.8H-152.8z"/></defs><clipPath id="D"><use xlink:href="#C"/></clipPath><path d="M12.7 69.4h62.1v69.7H12.7z" class="U" clip-path="url(#D)" transform="matrix(.8829 -.4695 .4695 .8829 -43.8025 32.7309)"/></g><defs><path id="E" d="M8.1 112.7l30.8 14.2c3.2 1.5 6.7 0 7.8-3.2s-.5-7.1-3.7-8.6l-30.8-14.2c-3.2-1.5-6.7 0-7.8 3.2-1.1 3.3.6 7.1 3.7 8.6"/></defs><clipPath id="F"><use xlink:href="#E"/></clipPath><g clip-path="url(#F)"><defs><path id="G" d="M-152.8-1136.4h4256.1v4078.8H-152.8z"/></defs><clipPath id="H"><use xlink:href="#G"/></clipPath><path d="M-5.4 79h62.1v69.7H-5.4z" class="U" clip-path="url(#H)" transform="matrix(.8829 -.4695 .4695 .8829 -50.4562 25.3412)"/></g><defs><path id="I" d="M79.5 95.7L48.7 81.5c-3.2-1.5-6.7 0-7.8 3.2s.5 7.1 3.7 8.6l30.8 14.2c3.2 1.5 6.7 0 7.8-3.2 1.1-3.3-.6-7.2-3.7-8.6"/></defs><clipPath id="J"><use xlink:href="#I"/></clipPath><g clip-path="url(#J)"><defs><path id="K" d="M-152.8-1136.4h4256.1v4078.8H-152.8z"/></defs><clipPath id="L"><use xlink:href="#K"/></clipPath><path d="M31 59.6h62.1v69.7H31z" class="U" clip-path="url(#L)" transform="matrix(.8829 -.4695 .4695 .8829 -37.1075 40.1667)"/></g><defs><path id="M" d="M115.8 76.4L85 62.2c-3.2-1.5-6.7 0-7.8 3.2s.5 7.1 3.7 8.6l30.8 14.2c3.2 1.5 6.7 0 7.8-3.2 1.1-3.3-.5-7.2-3.7-8.6"/></defs><clipPath id="N"><use xlink:href="#M"/></clipPath><g clip-path="url(#N)"><defs><path id="O" d="M-152.8-1136.4h4256.1v4078.8H-152.8z"/></defs><clipPath id="P"><use xlink:href="#O"/></clipPath><path d="M67.3 40.3h62.1V110H67.3z" class="U" clip-path="url(#P)" transform="matrix(.8829 -.4695 .4695 .8829 -23.7883 54.9592)"/></g><defs><path id="Q" d="M152.1 57.1l-30.8-14.2c-3.2-1.5-6.7 0-7.8 3.2s.5 7.1 3.7 8.6L148 68.9c3.2 1.5 6.7 0 7.8-3.2 1.2-3.3-.5-7.2-3.7-8.6"/></defs><clipPath id="R"><use xlink:href="#Q"/></clipPath><g clip-path="url(#R)"><defs><path id="S" d="M-152.8-1136.4h4256.1v4078.8H-152.8z"/></defs><clipPath id="T"><use xlink:href="#S"/></clipPath><path d="M103.6 21h62.1v69.7h-62.1z" class="U" clip-path="url(#T)" transform="matrix(.8829 -.4695 .4695 .8829 -10.4788 69.7618)"/></g><defs><path id="U" d="M188.5 37.8l-30.8-14.2c-3.2-1.5-6.7 0-7.8 3.2s.5 7.1 3.7 8.6l30.8 14.2c3.2 1.5 6.7 0 7.8-3.2 1.1-3.3-.5-7.2-3.7-8.6"/></defs><clipPath id="V"><use xlink:href="#U"/></clipPath><g clip-path="url(#V)"><defs><path id="W" d="M-152.8-1136.4h4256.1v4078.8H-152.8z"/></defs><clipPath id="X"><use xlink:href="#W"/></clipPath><path d="M140 1.7h62.1v69.7H140z" class="U" clip-path="url(#X)" transform="matrix(.8829 -.4695 .4695 .8829 2.8507 84.5701)"/></g><defs><path id="Y" d="M71.4 100l5.5-33.5c.6-3.4 3.7-5.6 7.1-4.7 3.3.9 5.6 4.4 5 7.9l-5.5 33.5c-.6 3.4-3.7 5.6-7.1 4.7-3.3-.9-5.6-4.5-5-7.9"/></defs><clipPath id="Z"><use xlink:href="#Y"/></clipPath><g clip-path="url(#Z)"><defs><path id="a" d="M-152.8-1136.4h4256.1v4078.8H-152.8z"/></defs><clipPath id="b"><use xlink:href="#a"/></clipPath><path d="M49.1 50h62.1v69.7H49.1z" class="U" clip-path="url(#b)" transform="matrix(.8829 -.4695 .4695 .8829 -30.4405 47.5712)"/></g><defs><path id="c" d="M107.7 80.7l5.5-33.5c.6-3.4 3.7-5.6 7.1-4.7 3.3.9 5.6 4.4 5 7.9l-5.5 33.5c-.6 3.4-3.7 5.6-7.1 4.7-3.3-.9-5.5-4.5-5-7.9"/></defs><clipPath id="d"><use xlink:href="#c"/></clipPath><g clip-path="url(#d)"><defs><path id="e" d="M-152.8-1136.4h4256.1v4078.8H-152.8z"/></defs><clipPath id="f"><use xlink:href="#e"/></clipPath><path d="M85.5 30.7h62.1v69.7H85.5z" class="U" clip-path="url(#f)" transform="matrix(.8829 -.4695 .4695 .8829 -17.129 62.3759)"/></g><defs><path id="g" d="M144.1 61.4l5.5-33.5c.6-3.4 3.7-5.6 7.1-4.7 3.3.9 5.6 4.4 5 7.9l-5.5 33.5c-.6 3.4-3.7 5.6-7.1 4.7-3.3-.9-5.6-4.5-5-7.9"/></defs><clipPath id="h"><use xlink:href="#g"/></clipPath><g clip-path="url(#h)"><defs><path id="i" d="M-152.8-1136.4h4256.1v4078.8H-152.8z"/></defs><clipPath id="j"><use xlink:href="#i"/></clipPath><path d="M121.8 11.4h62.1v69.7h-62.1z" class="U" clip-path="url(#j)" transform="matrix(.8829 -.4695 .4695 .8829 -3.8147 77.1674)"/></g><defs><path id="k" d="M180.3 42.1l5.5-33.5c.6-3.4 3.7-5.6 7.1-4.7 3.3.9 5.6 4.4 5 7.9l-5.5 33.5c-.6 3.4-3.7 5.6-7.1 4.7-3.3-.9-5.5-4.5-5-7.9"/></defs><clipPath id="l"><use xlink:href="#k"/></clipPath><g clip-path="url(#l)"><defs><path id="m" d="M-152.8-1136.4h4256.1v4078.8H-152.8z"/></defs><clipPath id="n"><use xlink:href="#m"/></clipPath><path d="M158.1-7.9h62.1v69.7h-62.1z" class="U" clip-path="url(#n)" transform="matrix(.8829 -.4695 .4695 .8829 9.4902 91.9441)"/></g></svg>