<svg xmlns="http://www.w3.org/2000/svg" xmlns:xlink="http://www.w3.org/1999/xlink" viewBox="0 0 200 200"><style>.U{fill:#1c998b}</style><defs><path id="A" d="M49.2 22L26.6 43c-2.3 2.2-5.8 1.9-7.7-.6s-1.5-6.3.8-8.5l22.6-21c2.3-2.2 5.8-1.9 7.7.6 1.9 2.6 1.5 6.4-.8 8.5"/></defs><clipPath id="B"><use xlink:href="#A"/></clipPath><g clip-path="url(#B)"><defs><path id="C" d="M-453.2-746.3h3877v3715.4h-3877z"/></defs><clipPath id="D"><use xlink:href="#C"/></clipPath><path d="M2.7-.2h63.5v56.4H2.7z" class="U" clip-path="url(#D)" transform="matrix(.1736 -.9848 .9848 .1736 .9194 57.0827)"/></g><defs><path id="E" d="M4.4 14.1l14.1 27.4c1.4 2.8 4.8 3.8 7.4 2.1s3.6-5.4 2.1-8.2L13.9 8c-1.4-2.8-4.8-3.8-7.4-2.1s-3.6 5.4-2.1 8.2"/></defs><clipPath id="F"><use xlink:href="#E"/></clipPath><g clip-path="url(#F)"><defs><path id="G" d="M-453.2-746.3h3877v3715.4h-3877z"/></defs><clipPath id="H"><use xlink:href="#G"/></clipPath><path d="M-15.6-3.4h63.5V53h-63.5z" class="U" clip-path="url(#H)" transform="matrix(.1736 -.9848 .9848 .1736 -11.0407 36.3671)"/></g><defs><path id="I" d="M64.7 41.9L50.6 14.4c-1.4-2.8-4.8-3.8-7.4-2.1s-3.6 5.4-2.1 8.2L55.2 48c1.4 2.8 4.8 3.8 7.4 2.1s3.6-5.4 2.1-8.2"/></defs><clipPath id="J"><use xlink:href="#I"/></clipPath><g clip-path="url(#J)"><defs><path id="K" d="M-453.2-746.3h3877v3715.4h-3877z"/></defs><clipPath id="L"><use xlink:href="#K"/></clipPath><path d="M21.2 3.1h63.5v56.4H21.2z" class="U" clip-path="url(#L)" transform="matrix(.1736 -.9848 .9848 .1736 12.9536 77.9274)"/></g><defs><path id="M" d="M101.4 48.3L87.3 20.9c-1.4-2.8-4.8-3.8-7.4-2.1s-3.6 5.4-2.1 8.2l14.1 27.4c1.4 2.8 4.8 3.8 7.4 2.1 2.6-1.6 3.5-5.3 2.1-8.2"/></defs><clipPath id="N"><use xlink:href="#M"/></clipPath><g clip-path="url(#N)"><defs><path id="O" d="M-453.2-746.3h3877v3715.4h-3877z"/></defs><clipPath id="P"><use xlink:href="#O"/></clipPath><path d="M57.8 9.5h63.5v56.4H57.8z" class="U" clip-path="url(#P)" transform="matrix(.1736 -.9848 .9848 .1736 36.8952 119.3955)"/></g><defs><path id="Q" d="M138.1 54.8L124 27.4c-1.4-2.8-4.8-3.8-7.4-2.1s-3.6 5.4-2.1 8.2l14 27.5c1.4 2.8 4.8 3.8 7.4 2.1 2.7-1.7 3.6-5.4 2.2-8.3"/></defs><clipPath id="R"><use xlink:href="#Q"/></clipPath><g clip-path="url(#R)"><defs><path id="S" d="M-453.2-746.3h3877v3715.4h-3877z"/></defs><clipPath id="T"><use xlink:href="#S"/></clipPath><path d="M94.5 16H158v56.4H94.5z" class="U" clip-path="url(#T)" transform="matrix(.1736 -.9848 .9848 .1736 60.8087 160.8824)"/></g><defs><path id="U" d="M174.8 61.3l-14.1-27.4c-1.4-2.8-4.8-3.8-7.4-2.1s-3.6 5.4-2.1 8.2l14.1 27.4c1.4 2.8 4.8 3.8 7.4 2.1s3.5-5.4 2.1-8.2"/></defs><clipPath id="V"><use xlink:href="#U"/></clipPath><g clip-path="url(#V)"><defs><path id="W" d="M-453.2-746.3h3877v3715.4h-3877z"/></defs><clipPath id="X"><use xlink:href="#W"/></clipPath><path d="M131.2 22.5h63.5v56.4h-63.5z" class="U" clip-path="url(#X)" transform="matrix(.1736 -.9848 .9848 .1736 84.7664 202.3928)"/></g><defs><path id="Y" d="M56.6 40.4l22.6-21c2.3-2.2 5.8-1.9 7.7.6s1.5 6.3-.8 8.5l-22.6 21c-2.3 2.2-5.8 1.9-7.7-.6s-1.6-6.3.8-8.5"/></defs><clipPath id="Z"><use xlink:href="#Y"/></clipPath><g clip-path="url(#Z)"><defs><path id="a" d="M-453.2-746.3h3877v3715.4h-3877z"/></defs><clipPath id="b"><use xlink:href="#a"/></clipPath><path d="M39.5 6.3H103v56.4H39.5z" class="U" clip-path="url(#b)" transform="matrix(.1736 -.9848 .9848 .1736 24.9377 98.6845)"/></g><defs><path id="c" d="M93.2 46.9l22.6-21c2.3-2.2 5.8-1.9 7.7.6s1.5 6.3-.8 8.5l-22.6 21c-2.3 2.2-5.8 1.9-7.7-.6s-1.5-6.3.8-8.5"/></defs><clipPath id="d"><use xlink:href="#c"/></clipPath><g clip-path="url(#d)"><defs><path id="e" d="M-453.2-746.3h3877v3715.4h-3877z"/></defs><clipPath id="f"><use xlink:href="#e"/></clipPath><path d="M76.2 12.8h63.5v56.4H76.2z" class="U" clip-path="url(#f)" transform="matrix(.1736 -.9848 .9848 .1736 48.8548 140.1776)"/></g><defs><path id="g" d="M129.9 53.4l22.6-21c2.3-2.2 5.8-1.9 7.7.6s1.5 6.3-.8 8.5l-22.6 21c-2.3 2.2-5.8 1.9-7.7-.6s-1.5-6.3.8-8.5"/></defs><clipPath id="h"><use xlink:href="#g"/></clipPath><g clip-path="url(#h)"><defs><path id="i" d="M-453.2-746.3h3877v3715.4h-3877z"/></defs><clipPath id="j"><use xlink:href="#i"/></clipPath><path d="M112.9 19.3h63.5v56.4h-63.5z" class="U" clip-path="url(#j)" transform="matrix(.1736 -.9848 .9848 .1736 72.7852 181.6406)"/></g><defs><path id="k" d="M166.6 59.9l22.6-21c2.3-2.2 5.8-1.9 7.7.6s1.5 6.3-.8 8.5l-22.6 21c-2.3 2.2-5.8 1.9-7.7-.6-1.9-2.6-1.6-6.4.8-8.5"/></defs><clipPath id="l"><use xlink:href="#k"/></clipPath><g clip-path="url(#l)"><defs><path id="m" d="M-453.2-746.3h3877v3715.4h-3877z"/></defs><clipPath id="n"><use xlink:href="#m"/></clipPath><path d="M149.5 25.7H213v56.4h-63.5z" class="U" clip-path="url(#n)" transform="matrix(.1736 -.9848 .9848 .1736 96.7011 223.0643)"/></g></svg>