<svg xmlns="http://www.w3.org/2000/svg" xmlns:xlink="http://www.w3.org/1999/xlink" viewBox="0 0 200 200"><defs><path id="A" d="M3 5h189v189H3z"/></defs><clipPath id="B"><use xlink:href="#A"/></clipPath><g clip-path="url(#B)"><defs><path id="C" d="M-9279-2949H801v9660H-9279z"/></defs><clipPath id="D"><use xlink:href="#C"/></clipPath><g clip-path="url(#D)" enable-background="new"><defs><path id="E" d="M3 5h189v189H3z"/></defs><clipPath id="F"><use xlink:href="#E"/></clipPath><g clip-path="url(#F)"><defs><path id="G" d="M97.5 5C45.3 5 3 47.3 3 99.5S45.3 194 97.5 194 192 151.7 192 99.5 149.7 5 97.5 5m0 149C67.4 154 43 129.6 43 99.5S67.4 45 97.5 45 152 69.4 152 99.5 127.6 154 97.5 154"/></defs><clipPath id="H"><use xlink:href="#G"/></clipPath><g clip-path="url(#H)"><defs><path id="I" d="M3 5h189v189H3z"/></defs><clipPath id="J"><use xlink:href="#I"/></clipPath><path d="M-32-30h259v259H-32z" clip-path="url(#J)" fill="#1c998b"/></g></g></g></g></svg>