<svg xmlns="http://www.w3.org/2000/svg" xmlns:xlink="http://www.w3.org/1999/xlink" viewBox="0 0 200 200"><style>.S{fill:#f05352}</style><defs><path id="A" d="M61.2 161.4c1.4-.4 2.9.5 3.3 2.1l5.8 21.6c.4 1.5-.4 3.1-1.8 3.4l-20.3 5.4c-1.4.4-2.9-.5-3.3-2.1l-5.8-21.6c-.4-1.5.4-3.1 1.8-3.4l20.3-5.4z"/></defs><clipPath id="B"><use xlink:href="#A"/></clipPath><g clip-path="url(#B)"><defs><path id="C" d="M-4928.4-3628h7947.8v5000.5h-7947.8z"/></defs><clipPath id="D"><use xlink:href="#C"/></clipPath><path d="M13.9 136h81.6v83.2H13.9z" class="S" clip-path="url(#D)" transform="matrix(.9659 -.2588 .2588 .9659 -44.1148 20.2143)"/></g><defs><path id="E" d="M44.1 97.6c1.4-.4 2.9.5 3.3 2.1l5.8 21.6c.4 1.5-.4 3.1-1.8 3.4l-20.3 5.4c-1.4.4-2.9-.5-3.3-2.1L22 106.5c-.4-1.5.4-3.1 1.8-3.4l20.3-5.5z"/></defs><clipPath id="F"><use xlink:href="#E"/></clipPath><g clip-path="url(#F)"><defs><path id="G" d="M-4928.4-3628h7947.8v5000.5h-7947.8z"/></defs><clipPath id="H"><use xlink:href="#G"/></clipPath><path d="M-3.2 72.2h81.6v83.2H-3.2z" class="S" clip-path="url(#H)" transform="matrix(.9659 -.2588 .2588 .9659 -28.1884 13.6174)"/></g><defs><path id="I" d="M27.1 33.8c1.4-.4 2.9.5 3.3 2.1l5.8 21.6c.4 1.5-.4 3.1-1.8 3.4L14 66.3c-1.4.4-2.9-.5-3.3-2.1L4.9 42.7c-.4-1.5.4-3.1 1.8-3.4l20.4-5.5z"/></defs><clipPath id="J"><use xlink:href="#I"/></clipPath><g clip-path="url(#J)"><defs><path id="K" d="M-4928.4-3628h7947.8v5000.5h-7947.8z"/></defs><clipPath id="L"><use xlink:href="#K"/></clipPath><path d="M-20.2 8.5h81.6v83.2h-81.6z" class="S" clip-path="url(#L)" transform="matrix(.9659 -.2588 .2588 .9659 -12.2621 7.0205)"/></g><defs><path id="M" d="M116.6 146.6c1.4-.4 2.9.5 3.3 2.1l5.8 21.6c.4 1.5-.4 3.1-1.8 3.4l-20.3 5.4c-1.4.4-2.9-.5-3.3-2.1l-5.8-21.6c-.4-1.5.4-3.1 1.8-3.4l20.3-5.4z"/></defs><clipPath id="N"><use xlink:href="#M"/></clipPath><g clip-path="url(#N)"><defs><path id="O" d="M-4928.4-3628h7947.8v5000.5h-7947.8z"/></defs><clipPath id="P"><use xlink:href="#O"/></clipPath><path d="M69.3 121.2h81.6v83.2H69.3z" class="S" clip-path="url(#P)" transform="matrix(.9659 -.2588 .2588 .9659 -38.3905 34.0337)"/></g><defs><path id="Q" d="M99.5 82.8c1.4-.4 2.9.5 3.3 2.1l5.8 21.6c.4 1.5-.4 3.1-1.8 3.4l-20.3 5.4c-1.4.4-2.9-.5-3.3-2.1l-5.8-21.6c-.4-1.5.4-3.1 1.8-3.4l20.3-5.4z"/></defs><clipPath id="R"><use xlink:href="#Q"/></clipPath><g clip-path="url(#R)"><defs><path id="S" d="M-4928.4-3628h7947.8v5000.5h-7947.8z"/></defs><clipPath id="T"><use xlink:href="#S"/></clipPath><path d="M52.2 57.4h81.6v83.2H52.2z" class="S" clip-path="url(#T)" transform="matrix(.9659 -.2588 .2588 .9659 -22.4642 27.4369)"/></g><defs><path id="U" d="M82.4 19c1.4-.4 2.9.5 3.3 2.1l5.8 21.6c.4 1.5-.4 3.1-1.8 3.4l-20.3 5.4c-1.4.4-2.9-.5-3.3-2.1l-5.8-21.6c-.4-1.5.4-3.1 1.8-3.4L82.4 19z"/></defs><clipPath id="V"><use xlink:href="#U"/></clipPath><g clip-path="url(#V)"><defs><path id="W" d="M-4928.4-3628h7947.8v5000.5h-7947.8z"/></defs><clipPath id="X"><use xlink:href="#W"/></clipPath><path d="M35.1-6.4h81.6v83.2H35.1z" class="S" clip-path="url(#X)" transform="matrix(.9659 -.2588 .2588 .9659 -6.5379 20.84)"/></g><defs><path id="Y" d="M171.9 131.7c1.4-.4 2.9.5 3.3 2.1l5.8 21.6c.4 1.5-.4 3.1-1.8 3.4l-20.3 5.4c-1.4.4-2.9-.5-3.3-2.1l-5.8-21.6c-.4-1.5.4-3.1 1.8-3.4l20.3-5.4z"/></defs><clipPath id="Z"><use xlink:href="#Y"/></clipPath><g clip-path="url(#Z)"><defs><path id="a" d="M-4928.4-3628h7947.8v5000.5h-7947.8z"/></defs><clipPath id="b"><use xlink:href="#a"/></clipPath><path d="M124.6 106.4h81.6v83.2h-81.6z" class="S" clip-path="url(#b)" transform="matrix(.9659 -.2588 .2588 .9659 -32.6663 47.8533)"/></g><defs><path id="c" d="M154.8 67.9c1.4-.4 2.9.5 3.3 2.1l5.8 21.6c.4 1.5-.4 3.1-1.8 3.4l-20.3 5.4c-1.4.4-2.9-.5-3.3-2.1l-5.8-21.6c-.4-1.5.4-3.1 1.8-3.4l20.3-5.4z"/></defs><clipPath id="d"><use xlink:href="#c"/></clipPath><g clip-path="url(#d)"><defs><path id="e" d="M-4928.4-3628h7947.8v5000.5h-7947.8z"/></defs><clipPath id="f"><use xlink:href="#e"/></clipPath><path d="M107.5 42.6h81.6v83.2h-81.6z" class="S" clip-path="url(#f)" transform="matrix(.9659 -.2588 .2588 .9659 -16.7399 41.2564)"/></g><defs><path id="g" d="M137.7 4.2c1.4-.4 2.9.5 3.3 2.1l5.8 21.6c.4 1.5-.4 3.1-1.8 3.4l-20.3 5.4c-1.4.4-2.9-.5-3.3-2.1L115.6 13c-.4-1.5.4-3.1 1.8-3.4l20.3-5.4z"/></defs><clipPath id="h"><use xlink:href="#g"/></clipPath><g clip-path="url(#h)"><defs><path id="i" d="M-4928.4-3628h7947.8v5000.5h-7947.8z"/></defs><clipPath id="j"><use xlink:href="#i"/></clipPath><path d="M90.4-21.2H172V62H90.4z" class="S" clip-path="url(#j)" transform="matrix(.9659 -.2588 .2588 .9659 -.8136 34.6595)"/></g></svg>