<svg xmlns="http://www.w3.org/2000/svg" xmlns:xlink="http://www.w3.org/1999/xlink" viewBox="0 0 5123 5355.3"><style>.V{fill:#282561}</style><path d="M3656 3923l671.1-323.6c60.1-31.6 134.4-8.5 166 51.5 2.9 5.5 5.4 11.2 7.4 17 24.3 74.3-9.2 155.2-79 190.5L3750.4 4182c-60.3 31.5-134.7 8.2-166.2-52-2.8-5.3-5.2-10.9-7.2-16.5-24.3-74.3 9.2-155.2 79-190.5" class="V"/><defs><path id="A" d="M3656 3923l671.1-323.6c60.1-31.6 134.4-8.5 166 51.5 2.9 5.5 5.4 11.2 7.4 17 24.3 74.3-9.2 155.2-79 190.5L3750.4 4182c-60.3 31.5-134.7 8.2-166.2-52-2.8-5.3-5.2-10.9-7.2-16.5-24.3-74.3 9.2-155.2 79-190.5"/><path id="B" d="M3481.652 4465.633l699.7-1364.42 1211.82 621.435-699.7 1364.42z"/></defs><clipPath id="C"><use xlink:href="#A"/></clipPath><g clip-path="url(#C)"><path d="M-96501.078 44306.795l42718.532-83302.54L26047.73 1942.167-16670.8 85244.708z" class="V"/><defs><path id="D" d="M-82036.797-21733h93619.398v89717.102h-93619.398z" transform="matrix(.4563 -.8898 .8898 .4563 -39729.6602 -18772.7754)"/></defs><clipPath id="E"><use xlink:href="#D"/></clipPath><g class="V" clip-path="url(#E)"><path d="M3082.982 4260.394l699.7-1364.42L4994.49 3517.4l-699.7 1364.42z"/></g></g><path d="M4633.5 4424.3l-130.2-732.6c-9.7-67.5-72.2-114.3-139.7-104.6-5.4.8-10.8 1.9-16.1 3.4-74.3 23.1-120 97.6-107 174.3l130.4 732.6c9.7 67.5 72.2 114.3 139.7 104.6 5.4-.8 10.8-1.9 16.1-3.4 74.3-23.1 119.9-97.6 106.8-174.3" class="V"/><defs><path id="F" d="M4633.5 4424.3l-130.2-732.6c-9.7-67.5-72.2-114.3-139.7-104.6-5.4.8-10.8 1.9-16.1 3.4-74.3 23.1-120 97.6-107 174.3l130.4 732.6c9.7 67.5 72.2 114.3 139.7 104.6 5.4-.8 10.8-1.9 16.1-3.4 74.3-23.1 119.9-97.6 106.8-174.3"/></defs><clipPath id="G"><use xlink:href="#F"/></clipPath><g clip-path="url(#G)"><path d="M-96372.735 44869.845l42718.532-83302.54L26176.073 2505.218l-42718.532 83302.54z" class="V"/><defs><path id="H" d="M-81908.398-21170H11711v89717.102h-93619.398z" transform="matrix(.4563 -.8898 .8898 .4563 -40160.8633 -18352.377)"/></defs><clipPath id="I"><use xlink:href="#H"/></clipPath><g class="V" clip-path="url(#I)"><use xlink:href="#B"/></g></g><path d="M3440.1 3353.4l129.7 735.8c9.5 67.3 71.8 114.2 139.2 104.7 5.6-.8 11.1-2 16.6-3.5 74.2-23.2 119.8-97.7 106.7-174.3l-129.4-734.8c-9.7-67.5-72.2-114.3-139.7-104.6-5.4.8-10.8 1.9-16.1 3.4-74.2 23.1-119.9 97.5-107 174.1" class="V"/><defs><path id="J" d="M3440.1 3353.4l129.7 735.8c9.5 67.3 71.8 114.2 139.2 104.7 5.6-.8 11.1-2 16.6-3.5 74.2-23.2 119.8-97.7 106.7-174.3l-129.4-734.8c-9.7-67.5-72.2-114.3-139.7-104.6-5.4.8-10.8 1.9-16.1 3.4-74.2 23.1-119.9 97.5-107 174.1"/></defs><clipPath id="K"><use xlink:href="#J"/></clipPath><g clip-path="url(#K)"><path d="M-96630.147 43740.196l42718.532-83302.54L25918.66 1375.57-16799.87 84678.1z" class="V"/><defs><path id="L" d="M-82165.898-22299.6H11453.5v89717.102h-93619.398z" transform="matrix(.4563 -.8898 .8898 .4563 -39295.6641 -19195.7129)"/></defs><clipPath id="M"><use xlink:href="#L"/></clipPath><g class="V" clip-path="url(#M)"><path d="M2678.834 4055.026l699.7-1364.42 1211.82 621.435-699.7 1364.42z"/></g></g><path d="M2638.9 2944.5l130.6 732.6c10 67.6 72.8 114.2 140.3 104.3 5.3-.8 10.5-1.9 15.7-3.4 74.2-23 119.9-97.5 106.7-174.1L2902 2871.3c-9.5-67.5-72-114.4-139.5-104.9-5.8.8-11.6 2.1-17.3 3.7-74 23.5-119.5 97.7-107 174.3" class="V"/><defs><path id="N" d="M2638.9 2944.5l130.6 732.6c10 67.6 72.8 114.2 140.3 104.3 5.3-.8 10.5-1.9 15.7-3.4 74.2-23 119.9-97.5 106.7-174.1L2902 2871.3c-9.5-67.5-72-114.4-139.5-104.9-5.8.8-11.6 2.1-17.3 3.7-74 23.5-119.5 97.7-107 174.3"/></defs><clipPath id="O"><use xlink:href="#N"/></clipPath><g clip-path="url(#O)"><path d="M-96887.26 42612.8l42718.532-83302.54L25661.55 248.162l-42718.532 83302.54z" class="V"/><defs><path id="P" d="M-82423.203-23427.1h93619.398v89717.102h-93619.398z" transform="matrix(.4563 -.8898 .8898 .4563 -38432.3398 -20037.625)"/></defs><clipPath id="Q"><use xlink:href="#P"/></clipPath><g class="V" clip-path="url(#Q)"><path d="M1880.978 3643.338l699.7-1364.42 1211.82 621.435-699.7 1364.42z"/></g></g><path d="M1838.4 2533.1l130.2 732.6c9.8 67.6 72.6 114.4 140.1 104.6 5.4-.8 10.6-1.9 15.9-3.4 74.2-23.2 119.8-97.7 106.7-174.3L2104 2458.4c-9.6-67.3-71.9-114.2-139.2-104.6-5.5.8-10.9 1.9-16.3 3.4-75.2 23.2-122 98-109.9 175.8" class="V"/><defs><path id="R" d="M1838.4 2533.1l130.2 732.6c9.8 67.6 72.6 114.4 140.1 104.6 5.4-.8 10.6-1.9 15.9-3.4 74.2-23.2 119.8-97.7 106.7-174.3L2104 2458.4c-9.6-67.3-71.9-114.2-139.2-104.6-5.5.8-10.9 1.9-16.3 3.4-75.2 23.2-122 98-109.9 175.8"/></defs><clipPath id="S"><use xlink:href="#R"/></clipPath><g clip-path="url(#S)"><path d="M-97143.685 41485.486l42718.532-83302.54L25405.124-879.142-17313.408 82423.4z" class="V"/><defs><path id="T" d="M-82679.5-24554.4h93619.398V65162.7H-82679.5z" transform="matrix(.4563 -.8898 .8898 .4563 -37568.5195 -20878.5566)"/></defs><clipPath id="U"><use xlink:href="#T"/></clipPath><g class="V" clip-path="url(#U)"><path d="M1080.688 3232.786l699.7-1364.42 1211.82 621.435-699.7 1364.42z"/></g></g><path d="M1037.9 2121.8l130.2 732.6c9.9 67.6 72.6 114.3 140.2 104.5 5.3-.8 10.4-1.9 15.6-3.3 74.4-23 120.2-97.6 107-174.3l-130.2-732.6c-9.7-67.5-72.2-114.3-139.7-104.6-5.4.8-10.8 1.9-16.1 3.4-73.6 24-118.9 97.9-107 174.3" class="V"/><defs><path id="V" d="M1037.9 2121.8l130.2 732.6c9.9 67.6 72.6 114.3 140.2 104.5 5.3-.8 10.4-1.9 15.6-3.3 74.4-23 120.2-97.6 107-174.3l-130.2-732.6c-9.7-67.5-72.2-114.3-139.7-104.6-5.4.8-10.8 1.9-16.1 3.4-73.6 24-118.9 97.9-107 174.3"/></defs><clipPath id="W"><use xlink:href="#V"/></clipPath><g clip-path="url(#W)"><path d="M-97400.9 40357.136l42718.532-83302.54L25147.918-2007.492-17570.613 81295.05z" class="V"/><defs><path id="X" d="M-82936.703-25682.8h93619.398V64034.3h-93619.398z" transform="matrix(.4563 -.8898 .8898 .4563 -36704.3164 -21720.8789)"/></defs><clipPath id="Y"><use xlink:href="#X"/></clipPath><g class="V" clip-path="url(#Y)"><path d="M279.48 2821.538l699.7-1364.42 1211.82 621.435-699.7 1364.42z"/></g></g><path d="M3616.4 3445.8l-671.1 323.6c-60.5 31.4-135 7.9-166.4-52.6-2.7-5.2-5.1-10.6-7-16.2-24.2-74.2 9.4-155 79-190.3l671.1-323.6c60.1-31.6 134.4-8.5 166 51.5 2.9 5.5 5.4 11.2 7.4 17 25.5 74.5-8.4 156.2-79 190.6" class="V"/><defs><path id="Z" d="M3616.4 3445.8l-671.1 323.6c-60.5 31.4-135 7.9-166.4-52.6-2.7-5.2-5.1-10.6-7-16.2-24.2-74.2 9.4-155 79-190.3l671.1-323.6c60.1-31.6 134.4-8.5 166 51.5 2.9 5.5 5.4 11.2 7.4 17 25.5 74.5-8.4 156.2-79 190.6"/></defs><clipPath id="a"><use xlink:href="#Z"/></clipPath><g clip-path="url(#a)"><path d="M-96758.782 43175.79l42718.532-83302.54L25790.027 811.162l-42718.532 83302.54z" class="V"/><defs><path id="b" d="M-82294.5-22864h93619.398v89717.102H-82294.5z" transform="matrix(.4563 -.8898 .8898 .4563 -38863.4102 -19617.0117)"/></defs><clipPath id="c"><use xlink:href="#b"/></clipPath><g class="V" clip-path="url(#c)"><path d="M2279.888 3848.77l699.7-1364.42 1211.82 621.435-699.7 1364.42z"/></g></g><path d="M2817.8 3035.1L2147 3358.7c-60.1 31.6-134.4 8.5-166-51.5-2.9-5.5-5.4-11.2-7.4-17-24.5-74.5 9.2-155.7 79.2-191l671.1-323.6c60.5-31.4 135-7.9 166.4 52.6 2.7 5.2 5.1 10.6 7 16.2 24.2 74.4-9.5 155.4-79.5 190.7" class="V"/><defs><path id="d" d="M2817.8 3035.1L2147 3358.7c-60.1 31.6-134.4 8.5-166-51.5-2.9-5.5-5.4-11.2-7.4-17-24.5-74.5 9.2-155.7 79.2-191l671.1-323.6c60.5-31.4 135-7.9 166.4 52.6 2.7 5.2 5.1 10.6 7 16.2 24.2 74.4-9.5 155.4-79.5 190.7"/></defs><clipPath id="e"><use xlink:href="#d"/></clipPath><g clip-path="url(#e)"><path d="M-97015.234 42048.14l42718.532-83302.54L25533.575-316.486l-42718.532 83302.54z" class="V"/><defs><path id="f" d="M-82551-23991.5h93619.398v89717.102H-82551z" transform="matrix(.4563 -.8898 .8898 .4563 -37999.6133 -20458.1953)"/></defs><clipPath id="g"><use xlink:href="#f"/></clipPath><g class="V" clip-path="url(#g)"><path d="M1479.642 3437.755l699.7-1364.42 1211.82 621.435-699.7 1364.42z"/></g></g><path d="M2017.6,2623.9l-670.8,323.6c-60.3,31.5-134.7,8.1-166.2-52.1c-2.8-5.4-5.2-11-7.2-16.7 c-24.1-74.2,9.4-154.8,79-190l672-323.8c60.1-31.6,134.4-8.5,166,51.5c2.9,5.5,5.4,11.2,7.4,17c24.3,74.3-9.2,155.2-79,190.5" class="V"/><defs><path id="h" d="M2017.6,2623.9l-670.8,323.6c-60.3,31.5-134.7,8.1-166.2-52.1c-2.8-5.4-5.2-11-7.2-16.7 c-24.1-74.2,9.4-154.8,79-190l672-323.8c60.1-31.6,134.4-8.5,166,51.5c2.9,5.5,5.4,11.2,7.4,17c24.3,74.3-9.2,155.2-79,190.5"/></defs><clipPath id="i"><use xlink:href="#h"/></clipPath><g clip-path="url(#i)"><path d="M-97272.234 40921.102l42718.532-83302.54L25276.575-1443.526l-42718.532 83302.54z" class="V"/><defs><path id="j" d="M-82808-25118.8h93619.398V64598.3H-82808z" transform="matrix(.4563 -.8898 .8898 .4563 -37136.2305 -21299.748)"/></defs><clipPath id="k"><use xlink:href="#j"/></clipPath><g class="V" clip-path="url(#k)"><path d="M678.637 3027.475l699.7-1364.42 1211.82 621.435-699.7 1364.42z"/></g></g><path d="M1217.1 2212.4L546.3 2536c-60.2 31.6-134.7 8.5-166.3-51.7-2.9-5.4-5.3-11.1-7.3-16.9-23.4-73.9 9.8-153.8 78.7-189.3l671.3-324.8c60.2-31.7 134.7-8.7 166.4 51.5 2.9 5.6 5.4 11.4 7.5 17.3 25.8 74.3-8.1 156.1-79 190.3" class="V"/><defs><path id="l" d="M1217.1 2212.4L546.3 2536c-60.2 31.6-134.7 8.5-166.3-51.7-2.9-5.4-5.3-11.1-7.3-16.9-23.4-73.9 9.8-153.8 78.7-189.3l671.3-324.8c60.2-31.7 134.7-8.7 166.4 51.5 2.9 5.6 5.4 11.4 7.5 17.3 25.8 74.3-8.1 156.1-79 190.3"/></defs><clipPath id="m"><use xlink:href="#l"/></clipPath><g clip-path="url(#m)"><path d="M-97528.687 39794.888l42718.532-83302.54L25020.12-2569.74-17698.4 80732.802z" class="V"/><defs><path id="n" d="M-83064.703-26245h93619.398v89717.102h-93619.398z" transform="matrix(.4563 -.8898 .8898 .4563 -36273.6836 -22140.5234)"/></defs><clipPath id="o"><use xlink:href="#n"/></clipPath><g class="V" clip-path="url(#o)"><path d="M-119.188 2617.203l699.7-1364.42 1211.82 621.435-699.7 1364.42z"/></g></g></svg>