<svg xmlns="http://www.w3.org/2000/svg" xmlns:xlink="http://www.w3.org/1999/xlink" viewBox="0 0 200 200"><defs><path id="A" d="M20 32h135.8v134.4H20z"/></defs><clipPath id="B"><use xlink:href="#A"/></clipPath><g fill="#24215d"><path d="M58.8 121.4c2.6 3.5 2 8.4-1.5 11s-8.4 2-11-1.5-2-8.4 1.5-11c3.4-2.6 8.3-2 11 1.5m24.6 32.3c2.6 3.5 2 8.4-1.5 11s-8.4 2-11-1.5-2-8.4 1.5-11c3.4-2.6 8.4-1.9 11 1.5M34.1 89.1c2.6 3.5 2 8.4-1.5 11s-8.4 2-11-1.5-2-8.4 1.5-11c3.4-2.7 8.4-2 11 1.5m95.5-21.7c2.6 3.5 2 8.4-1.5 11s-8.4 2-11-1.5-2-8.4 1.5-11c3.4-2.6 8.3-1.9 11 1.5m24.6 32.4c2.6 3.5 2 8.4-1.5 11s-8.4 2-11-1.5-2-8.4 1.5-11c3.4-2.6 8.4-2 11 1.5m-49.3-64.7c2.6 3.5 2 8.4-1.5 11s-8.4 2-11-1.5-2-8.4 1.5-11 8.4-2 11 1.5M94.2 94.4c2.6 3.5 2 8.4-1.5 11s-8.4 2-11-1.5-2-8.4 1.5-11c3.4-2.6 8.3-1.9 11 1.5m24.6 32.4c2.6 3.5 2 8.4-1.5 11s-8.4 2-11-1.5-2-8.4 1.5-11 8.4-2 11 1.5" clip-path="url(#B)"/><path d="M69.5 62.1c2.6 3.5 2 8.4-1.5 11s-8.4 2-11-1.5-2-8.4 1.5-11c3.4-2.6 8.4-2 11 1.5" clip-path="url(#B)"/></g></svg>