<svg id="Layer_1" data-name="Layer 1" xmlns="http://www.w3.org/2000/svg" xmlns:xlink="http://www.w3.org/1999/xlink" viewBox="0 0 5122.96 5355.29"><defs><style>.cls-1{fill:#282561;}.cls-2{clip-path:url(#clip-path);}.cls-3{clip-path:url(#clip-path-2);}.cls-4{clip-path:url(#clip-path-3);}.cls-5{clip-path:url(#clip-path-4);}.cls-6{clip-path:url(#clip-path-5);}.cls-7{clip-path:url(#clip-path-6);}.cls-8{clip-path:url(#clip-path-7);}.cls-9{clip-path:url(#clip-path-8);}.cls-10{clip-path:url(#clip-path-9);}.cls-11{clip-path:url(#clip-path-10);}.cls-12{clip-path:url(#clip-path-11);}.cls-13{clip-path:url(#clip-path-12);}.cls-14{clip-path:url(#clip-path-13);}.cls-15{clip-path:url(#clip-path-14);}.cls-16{clip-path:url(#clip-path-15);}.cls-17{clip-path:url(#clip-path-16);}.cls-18{clip-path:url(#clip-path-17);}.cls-19{clip-path:url(#clip-path-18);}.cls-20{clip-path:url(#clip-path-19);}.cls-21{clip-path:url(#clip-path-20);}</style><clipPath id="clip-path" transform="translate(4042.59 1838.08)"><path class="cls-1" d="M147.71,126.12l27.79-13.4a5.09,5.09,0,0,1,7.18,2.84,6.56,6.56,0,0,1-3.27,7.89l-27.79,13.4a5.1,5.1,0,0,1-7.18-2.84,6.55,6.55,0,0,1,3.27-7.89"/></clipPath><clipPath id="clip-path-2" transform="translate(4042.59 1838.08)"><rect class="cls-1" x="-3400.95" y="-936.34" width="3876.94" height="3715.34" transform="translate(-1614.96 -800.43) rotate(-62.85)"/></clipPath><clipPath id="clip-path-3" transform="translate(4042.59 1838.08)"><path class="cls-1" d="M188.19,146.88l-5.39-30.34a5.11,5.11,0,0,0-6.45-4.19,6.43,6.43,0,0,0-4.43,7.22l5.4,30.34a5.11,5.11,0,0,0,6.45,4.19,6.43,6.43,0,0,0,4.42-7.22"/></clipPath><clipPath id="clip-path-4" transform="translate(4042.59 1838.08)"><rect class="cls-1" x="-3395.63" y="-913.02" width="3876.94" height="3715.34" transform="translate(-1632.82 -783.02) rotate(-62.85)"/></clipPath><clipPath id="clip-path-5" transform="translate(4042.59 1838.08)"><path class="cls-1" d="M138.77,102.53,144.14,133a5.1,5.1,0,0,0,6.45,4.19,6.43,6.43,0,0,0,4.42-7.22l-5.36-30.43a5.11,5.11,0,0,0-6.45-4.19,6.43,6.43,0,0,0-4.43,7.21"/></clipPath><clipPath id="clip-path-6" transform="translate(4042.59 1838.08)"><rect class="cls-1" x="-3406.3" y="-959.8" width="3876.94" height="3715.34" transform="translate(-1596.99 -817.95) rotate(-62.85)"/></clipPath><clipPath id="clip-path-7" transform="translate(4042.59 1838.08)"><path class="cls-1" d="M105.59,85.6,111,115.94a5.12,5.12,0,0,0,6.46,4.18,6.41,6.41,0,0,0,4.42-7.21l-5.39-30.34A5.11,5.11,0,0,0,110,78.38a6.48,6.48,0,0,0-4.43,7.22"/></clipPath><clipPath id="clip-path-8" transform="translate(4042.59 1838.08)"><rect class="cls-1" x="-3416.95" y="-1006.49" width="3876.94" height="3715.34" transform="translate(-1561.24 -852.81) rotate(-62.85)"/></clipPath><clipPath id="clip-path-9" transform="translate(4042.59 1838.08)"><path class="cls-1" d="M72.44,68.56,77.83,98.9a5.12,5.12,0,0,0,6.46,4.19,6.43,6.43,0,0,0,4.42-7.22l-5.27-30.4A5.1,5.1,0,0,0,77,61.28a6.56,6.56,0,0,0-4.55,7.28"/></clipPath><clipPath id="clip-path-10" transform="translate(4042.59 1838.08)"><rect class="cls-1" x="-3427.57" y="-1053.18" width="3876.94" height="3715.34" transform="translate(-1525.46 -887.64) rotate(-62.85)"/></clipPath><clipPath id="clip-path-11" transform="translate(4042.59 1838.08)"><path class="cls-1" d="M39.29,51.53l5.39,30.34a5.12,5.12,0,0,0,6.45,4.19,6.42,6.42,0,0,0,4.43-7.22L50.17,48.5a5.11,5.11,0,0,0-6.45-4.19,6.54,6.54,0,0,0-4.43,7.22"/></clipPath><clipPath id="clip-path-12" transform="translate(4042.59 1838.08)"><rect class="cls-1" x="-3438.22" y="-1099.91" width="3876.94" height="3715.34" transform="translate(-1489.67 -922.52) rotate(-62.85)"/></clipPath><clipPath id="clip-path-13" transform="translate(4042.59 1838.08)"><path class="cls-1" d="M146.07,106.36l-27.79,13.4a5.11,5.11,0,0,1-7.18-2.85,6.56,6.56,0,0,1,3.27-7.88l27.79-13.4a5.09,5.09,0,0,1,7.18,2.84,6.45,6.45,0,0,1-3.27,7.89"/></clipPath><clipPath id="clip-path-14" transform="translate(4042.59 1838.08)"><rect class="cls-1" x="-3411.63" y="-983.17" width="3876.94" height="3715.34" transform="translate(-1579.09 -835.4) rotate(-62.85)"/></clipPath><clipPath id="clip-path-15" transform="translate(4042.59 1838.08)"><path class="cls-1" d="M113,89.35l-27.78,13.4a5.09,5.09,0,0,1-7.18-2.84A6.56,6.56,0,0,1,81.32,92l27.79-13.4a5.11,5.11,0,0,1,7.18,2.85A6.57,6.57,0,0,1,113,89.35"/></clipPath><clipPath id="clip-path-16" transform="translate(4042.59 1838.08)"><rect class="cls-1" x="-3422.25" y="-1029.87" width="3876.94" height="3715.34" transform="translate(-1543.31 -870.23) rotate(-62.85)"/></clipPath><clipPath id="clip-path-17" transform="translate(4042.59 1838.08)"><path class="cls-1" d="M79.86,72.32,52.08,85.72a5.1,5.1,0,0,1-7.18-2.85A6.55,6.55,0,0,1,48.17,75L76,61.59a5.09,5.09,0,0,1,7.18,2.84,6.56,6.56,0,0,1-3.27,7.89"/></clipPath><clipPath id="clip-path-18" transform="translate(4042.59 1838.08)"><rect class="cls-1" x="-3432.89" y="-1076.55" width="3876.94" height="3715.34" transform="translate(-1507.56 -905.08) rotate(-62.85)"/></clipPath><clipPath id="clip-path-19" transform="translate(4042.59 1838.08)"><path class="cls-1" d="M46.71,55.28,18.93,68.68a5.1,5.1,0,0,1-7.19-2.84A6.58,6.58,0,0,1,15,58L42.8,44.55A5.1,5.1,0,0,1,50,47.4a6.41,6.41,0,0,1-3.27,7.88"/></clipPath><clipPath id="clip-path-20" transform="translate(4042.59 1838.08)"><rect class="cls-1" x="-3443.52" y="-1123.18" width="3876.94" height="3715.34" transform="translate(-1471.85 -939.9) rotate(-62.85)"/></clipPath></defs><title>PurpleZigZag</title><path class="cls-1" d="M147.71,126.12l27.79-13.4a5.09,5.09,0,0,1,7.18,2.84,6.56,6.56,0,0,1-3.27,7.89l-27.79,13.4a5.1,5.1,0,0,1-7.18-2.84,6.55,6.55,0,0,1,3.27-7.89" transform="translate(4042.59 1838.08)"/><g class="cls-2"><rect class="cls-1" x="-3400.95" y="-936.34" width="3876.94" height="3715.34" transform="translate(2427.63 1037.65) rotate(-62.85)"/><g class="cls-3"><rect class="cls-1" x="131.81" y="96.51" width="63.5" height="56.4" transform="translate(4020.55 2051.42) rotate(-62.85)"/></g></g><path class="cls-1" d="M188.19,146.88l-5.39-30.34a5.11,5.11,0,0,0-6.45-4.19,6.43,6.43,0,0,0-4.43,7.22l5.4,30.34a5.11,5.11,0,0,0,6.45,4.19,6.43,6.43,0,0,0,4.42-7.22" transform="translate(4042.59 1838.08)"/><g class="cls-4"><rect class="cls-1" x="-3395.63" y="-913.02" width="3876.94" height="3715.34" transform="translate(2409.77 1055.06) rotate(-62.85)"/><g class="cls-5"><rect class="cls-1" x="148.33" y="105.01" width="63.5" height="56.4" transform="translate(4021.96 2070.74) rotate(-62.85)"/></g></g><path class="cls-1" d="M138.77,102.53,144.14,133a5.1,5.1,0,0,0,6.45,4.19,6.43,6.43,0,0,0,4.42-7.22l-5.36-30.43a5.11,5.11,0,0,0-6.45-4.19,6.43,6.43,0,0,0-4.43,7.21" transform="translate(4042.59 1838.08)"/><g class="cls-6"><rect class="cls-1" x="-3406.3" y="-959.8" width="3876.94" height="3715.34" transform="translate(2445.6 1020.13) rotate(-62.85)"/><g class="cls-7"><rect class="cls-1" x="115.08" y="88" width="63.5" height="56.4" transform="translate(4019.02 2031.91) rotate(-62.85)"/></g></g><path class="cls-1" d="M105.59,85.6,111,115.94a5.12,5.12,0,0,0,6.46,4.18,6.41,6.41,0,0,0,4.42-7.21l-5.39-30.34A5.11,5.11,0,0,0,110,78.38a6.48,6.48,0,0,0-4.43,7.22" transform="translate(4042.59 1838.08)"/><g class="cls-8"><rect class="cls-1" x="-3416.95" y="-1006.49" width="3876.94" height="3715.34" transform="translate(2481.36 985.27) rotate(-62.85)"/><g class="cls-9"><rect class="cls-1" x="82.04" y="70.96" width="63.5" height="56.4" transform="translate(4016.22 1993.24) rotate(-62.85)"/></g></g><path class="cls-1" d="M72.44,68.56,77.83,98.9a5.12,5.12,0,0,0,6.46,4.19,6.43,6.43,0,0,0,4.42-7.22l-5.27-30.4A5.1,5.1,0,0,0,77,61.28a6.56,6.56,0,0,0-4.55,7.28" transform="translate(4042.59 1838.08)"/><g class="cls-10"><rect class="cls-1" x="-3427.57" y="-1053.18" width="3876.94" height="3715.34" transform="translate(2517.13 950.44) rotate(-62.85)"/><g class="cls-11"><rect class="cls-1" x="48.89" y="53.96" width="63.5" height="56.4" transform="translate(4013.33 1954.5) rotate(-62.85)"/></g></g><path class="cls-1" d="M39.29,51.53l5.39,30.34a5.12,5.12,0,0,0,6.45,4.19,6.42,6.42,0,0,0,4.43-7.22L50.17,48.5a5.11,5.11,0,0,0-6.45-4.19,6.54,6.54,0,0,0-4.43,7.22" transform="translate(4042.59 1838.08)"/><g class="cls-12"><rect class="cls-1" x="-3438.22" y="-1099.91" width="3876.94" height="3715.34" transform="translate(2552.92 915.56) rotate(-62.85)"/><g class="cls-13"><rect class="cls-1" x="15.71" y="36.92" width="63.5" height="56.4" transform="translate(4010.45 1915.72) rotate(-62.85)"/></g></g><path class="cls-1" d="M146.07,106.36l-27.79,13.4a5.11,5.11,0,0,1-7.18-2.85,6.56,6.56,0,0,1,3.27-7.88l27.79-13.4a5.09,5.09,0,0,1,7.18,2.84,6.45,6.45,0,0,1-3.27,7.89" transform="translate(4042.59 1838.08)"/><g class="cls-14"><rect class="cls-1" x="-3411.63" y="-983.17" width="3876.94" height="3715.34" transform="translate(2463.5 1002.68) rotate(-62.85)"/><g class="cls-15"><rect class="cls-1" x="98.55" y="79.46" width="63.5" height="56.4" transform="translate(4017.64 2012.56) rotate(-62.85)"/></g></g><path class="cls-1" d="M113,89.35l-27.78,13.4a5.09,5.09,0,0,1-7.18-2.84A6.56,6.56,0,0,1,81.32,92l27.79-13.4a5.11,5.11,0,0,1,7.18,2.85A6.57,6.57,0,0,1,113,89.35" transform="translate(4042.59 1838.08)"/><g class="cls-16"><rect class="cls-1" x="-3422.25" y="-1029.87" width="3876.94" height="3715.34" transform="translate(2499.28 967.84) rotate(-62.85)"/><g class="cls-17"><rect class="cls-1" x="65.41" y="62.45" width="63.5" height="56.4" transform="translate(4014.76 1973.81) rotate(-62.85)"/></g></g><path class="cls-1" d="M79.86,72.32,52.08,85.72a5.1,5.1,0,0,1-7.18-2.85A6.55,6.55,0,0,1,48.17,75L76,61.59a5.09,5.09,0,0,1,7.18,2.84,6.56,6.56,0,0,1-3.27,7.89" transform="translate(4042.59 1838.08)"/><g class="cls-18"><rect class="cls-1" x="-3432.89" y="-1076.55" width="3876.94" height="3715.34" transform="translate(2535.03 933) rotate(-62.85)"/><g class="cls-19"><rect class="cls-1" x="32.24" y="45.46" width="63.5" height="56.4" transform="translate(4011.84 1935.06) rotate(-62.85)"/></g></g><path class="cls-1" d="M46.71,55.28,18.93,68.68a5.1,5.1,0,0,1-7.19-2.84A6.58,6.58,0,0,1,15,58L42.8,44.55A5.1,5.1,0,0,1,50,47.4a6.41,6.41,0,0,1-3.27,7.88" transform="translate(4042.59 1838.08)"/><g class="cls-20"><rect class="cls-1" x="-3443.52" y="-1123.18" width="3876.94" height="3715.34" transform="translate(2570.75 898.18) rotate(-62.85)"/><g class="cls-21"><rect class="cls-1" x="-0.79" y="28.47" width="63.5" height="56.4" transform="translate(4008.99 1896.43) rotate(-62.85)"/></g></g></svg>